<svg xmlns="http://www.w3.org/2000/svg" viewBox="0 0 1448 1448" xmlns:v="https://vecta.io/nano"><style><![CDATA[.B{fill:#181818}.C{fill:#414141}.D{fill:#888}.E{fill:#333}.F{fill:#a8a8a8}.G{fill:#cdcdcd}]]></style><path d="m978 499-1-1-1-4a2 2-58 0 0 0-1l-1-2v-3l-1-10v-11l1-3v-25l1-2v-17l-1-2q0 1 0 0v-10c0-3 6-3 5-7l1-1 1-7 1-7 5-19v-21l-1-6-4-19-4-11-4-16-3-6-3-9-3-3-4-5-1-3-14-19-3-7-2-4-3-3-5-4-12-9c-8-7-18-15-28-17l-9-2q-13-4-26-12l-1-3c-1-5-4-13-11-9l-8 3-5 2-7-1q-9-1-22-5-5-1-8-4c-5-4-7-10-8-15v-5c-1-3-3-9-6-9h-43l-2 1h-6l-1-1h-5l-5-1-13-1-3-1-6-1-14-2h-11l-8 2-8 6-8 5-8 4c-2 0-4-1-5 1h-17l-2 1h-6l-1 1h-6l-1 1h-19l-3 1-10 9-7 10q-15 22-34 38l-10 8-10 8-11 11-4 4q-5 6-13 6h-2q0 1 0 0h-1c-4 0-6 2-9 4-3 4-7 7-11 9-4 1-7 4-8 8l-2 9-2 5-3 6-6 17c-2 7-5 13-8 18l-7 12-5 13-1 3-1 7v9l1 3v4l1 6 2 6 4 12q3 5 4 12l3 12 1 4 1 3v17l-2-6q-6-22-16-44c-4-10-7-21-6-31l2-9q8-35 20-69c4-11 9-22 17-30l12-10c15-10 29-20 43-32q25-23 51-50l5-6 3-5c5-5 10-11 16-14l14-10q14-8 35-13c24-7 48-10 72-14 25-4 48-5 75-3q22 1 37 11l12 10 21 14 19 10 3 2 34 27 21 21q18 22 31 42l18 31 9 18q10 22 14 42c2 14 2 27 0 41l-10 54-3 19-1 20-1 17-1 12Z" class="E"/><path d="M732 146h-10l-5-1h-2l-7-1-5-1-13-3h-15l-5 1-5 2-15 11-9 3h-2l-3 1h-18l2-1h17c1-2 3-1 5-1l8-4 8-5 8-6 8-2h11l14 2 6 1 3 1 13 1 5 1h5l1 1Z" class="B"/><path d="M732 146h2v1a1 1-12 0 0 1 0h2l1-1 2-1v1h1q11 1 22-1h6l11 1h3c3 1 4 5 4 8 1 6 2 11 5 16q5 8 15 10l18 4h13q5-1 9-4c3-2 6-1 8 3l2 6v1c2 3 7 6 10 7l8 3q7 4 15 5l11 3 14 10 11 9 7 5q4 2 8 7l2 4 2 5 14 19 5 8c3 3 6 8 7 12l2 5 1 4 6 23 5 14 2 8v5l1 3v11l-1 4v3l-3 12q-3 7-4 16c0 2 0 5-2 8-4 2-5 6-4 9l1 3v3q0 1 0 0v21l-1 8a2 2 38 0 0 0 1v8l1 5-1 2-1 5 1 10-1 9 1 1v1l1 4v1l2 6h1q0 4 2 7l-3 3c-3 2-6 6-8 10l-2 5-5 12-4 11-1 4-1 2-4 14v4l-1 1h-1v-1l-1-11-2-5-4-9-1-4-1-2-2-9-1-3v-8l-1-11 1-17-3-26-1-9-4-19c-2-6-6-11-7-17q-2-7-1-13v-8q0-19-5-36l-6-14c-3-8-4-15-11-20q-3-2-6 0a1 1-10 0 0 0 1l-1 4q-1 2-1 0l-1-8-1-7q-4-11-11-18-13-13-31-22l-3-2-16-6-4-1-5-2-7-2c-2-1-4 1-5 3l2 12v3l1 3-1 5h-1v-3l-2-7-5-8c-3-4-6-7-10-8h-4a3 3 1 0 0-2 2c-1 3 1 5 1 8l1 3 2 4 2 4 1 4q1 0 0 0l-1-1-3-5-4-6-3-3-4-4a1 1 0 0 0-1 0l-4 1q-15 12-33 18-12 4-29 5 1-1-1-1l-1-1h-14q-2 0-3 3c-1 2-3 3-6 4h-5l-4-2c-6-4-10-10-14-16a2 2 0 0 0-3 0l-1 2q3 10 11 15l6 2 15 9 5 5 20 24 3 3 4 5 3 5 3 3 8 7 7 4q4 3 7 3c7 2 16-2 22-6q15-10 24-26v1a1 1-66 0 0 1 0l3-7h1v-1h1v1l-2 5 1 1q0-1 0 0l-3 7-12 15q-11 9-24 12c-17 4-32-4-42-18l1-1-1-1-2-3-2-2-2-3-3-2-8-8-10-8-14-10-4-3-4-3-16-14-7-10q-8-13-22-22l-12-5-11-3q-7-1-12 4l-1 1h-6l-6 1q-10 3-19 8l-21 12-22 17-2 3-7 6-3 4-4 4-7 9-4 6-1 2-2 3-6 9-1 3v1l-1 2-1 1-1 4-1 1-2 3-4 9-3 8-3 14-1 2v4l-1 1-1 5v2l-2 12v3l-1 7-1 7v6l-1 11-1 11v37l1 7 1 20 1 6v12l1 6v7l1 13h1v-5 11l-1 11-3 13q-6 13-9 28v8c-1 3 3 4 3 5q0 1 0 0l-5-1c-2 0-4 1-5-1v-3l10-38 2-11-2-9-1-4v-11l-2-7-1-6-1-6-1-5-2-8-7-14v-16l-1-15 1-9q2-17 0-27l-1-14-1-3v-4l-1-2-4-16-5-13-4-14-1-4v-1l-1-5v-13l1-2 1-4 3-9 4-9 5-8 8-15 7-22 3-6 3-10 3-6c1-2 4-3 7-5l7-4 2-3q3-3 7-3l2-2q0 1 0 0c6 1 11 1 15-4l3-3 8-8 3-4 3-3 20-14 6-6 6-6 4-5 2-3 18-24 6-7 7-6 4-1h17l2-1a2 2-57 0 1 1 0l6-1h1q3 1 5-1h18l3-1h2l9-3 15-11 5-2 5-1h15l13 3 5 1 7 1h2l5 1h10Z" class="C"/><path d="M975 418v-3l-1-3c-1-3 0-7 4-9 2-3 2-6 2-8q1-9 4-16l3-12v-3l1-4v-11l-1-3v-5l-2-8-5-14-6-23-1-4-2-5c-1-4-4-9-7-12l-5-8-14-19-2-5-2-4q-4-5-8-7l-7-5-11-9-14-10-11-3q-8-1-15-5l-8-3c-3-1-8-4-10-7v-1l-2-6c-2-4-5-5-8-3q-4 3-9 4h-13l-18-4q-10-2-15-10c-3-5-4-10-5-16 0-3-1-7-4-8h-3l-11-1h14c3 0 5 6 6 9v5c1 5 3 11 8 15q3 3 8 4 13 4 22 5l7 1 5-2 8-3c7-4 10 4 11 9l1 3q13 8 26 12l9 2c10 2 20 10 28 17l12 9 5 4 3 3 2 4 3 7 14 19 1 3 4 5 3 3 3 9 3 6 4 16 4 11 4 19 1 6v21l-5 19-1 7-1 7-1 1c1 4-5 4-5 7v10ZM763 145q-11 2-22 1h-1v-1h23Zm-29 1h4l-1 1h-2a1 1-12 0 1-1 0v-1Zm-116 12q-2 2-5 1h-1l-6 1a2 2-57 0 0-1 0l-2 1h-17l-4 1-7 6-6 7-18 24-2 3-4 5-6 6-6 6-20 14-3 3-3 4-8 8-3 3c-4 5-9 5-15 4h2q8 0 13-6l4-4 11-11 10-8 10-8q19-16 34-38l7-10 10-9 3-1h19l1-1h6l1-1h6Zm-26 3h-8 8Zm-111 94-2 2q-4 0-7 3l-2 3-7 4c-3 2-6 3-7 5l-3 6-3 10-3 6-7 22-8 15-5 8-4 9-3 9-1 4-1 2v13l1 5v1l1 4 4 14 5 13 4 16 1 2v4l1 3 1 14q2 10 0 27v-19l-1-3-1-3v-17l-1-3-1-4-3-12q-1-7-4-12l-4-12-2-6-1-6v-4l-1-3v-9l1-7 1-3 5-13 7-12c3-5 6-11 8-18l6-17 3-6 2-5 2-9c1-4 4-7 8-8 4-2 8-5 11-9 3-2 5-4 9-4h1Zm-64 117v-6 6Zm304-16-10-12-5-5q-16-14-35-26l-10-9-11-13-7-11q-11-11-24-16l-16-4c-5-1-7 1-11 3l-3 1q-9 0-17 3-24 11-46 28l-8 7-8 8q-17 17-28 38l-12 27q-5 14-8 31l-3 21q-3 22-3 36v32l3 42v9l1 7v8l1 6v5h-1l-1-13v-7l-1-6v-12l-1-6-1-20-1-7v-37l1-11 1-11v-6l1-7 1-7v-3l2-12v-2l1-5 1-1v-4l1-2 3-14 3-8 4-9 2-3 1-1 1-4 1-1 1-2v-1l1-3 6-9 2-3 1-2 4-6 7-9 4-4 3-4 7-6 2-3 22-17 21-12q9-5 19-8l6-1h6l1-1q5-5 12-4l11 3 12 5q14 9 22 22l7 10 16 14 4 3 4 3 14 10 10 8 8 8 3 2 2 3 2 2 2 3 1 1-1 1Z" class="B"/><path d="M671 313q-3 3-7 3l-3-1-3-1h-5q-4 3-10 3l-6 2-5 3c-2 1-3 2-6 1l-8-3-7-2-7-2-12-6h-11l-8 1-14 5-4 2c-4 1-6 4-8 7-2 5-5 9-8 12l-5 5-4 5q-3 1-4 4l-4 4-3 7-1 6-2 6-1 11v6l-2 6-2 9v5l1 13 1 5 1 5v1l2 7 1 8 2 7 1 5v7l2 4v6q2 0 3-2l1-1h2q0 2 2 2h1l1-3a1 1 0 0 1 0-1q3-2 5-1v3l-1 2h1v-2l1 1 1 1 2-1h1l1 1 1-1h1v2q-16 6-26 21-5 8-8 18l-9 18h2l12-8 2-2 4-4q26-24 62-29 21-3 40-3c7 0 12 1 19 4h2a1 1 52 0 0 0-2q-11-14-29-21l12-6 3-1c7 0 13 1 19 5l5 1 5 3 3 5 2 6 1 5v46l1 22v6l-1 4-1 12v9l-1 9-1 5v12l1 2q0 3 2 5l1 2 2 3c3 3 10 5 14 5q7 1 15-1 5 0 8-4l2-3q2-18 1-34l-1-5v-40l2-17v-2l1-6c0-2-1-5 1-8v-7l-1-1v-2a2 2 0 0 0 0-1l-1-4v-5l-1-3-1-9q-2-5 2-9 5-5 13-7l10-1 1 1q-1 0 0 0 0 3 2 4h1v-1l-1-1 3 3-7 4q-7 4-10 12c-2 4 0 7 5 7 13-3 26-5 40-5l34 3c22 3 45 11 65 23l3 1c1 2 3 3 5 3 2-1 2-4 1-6q-7-19-24-30l1-1a1 1-43 0 1 1 0v1l3 1c4 3 7 0 10-3l6-8 1-2q0-4-2-7c-2-4-3-7-3-12v-7l-2-15c0-4-1-8-4-10-3-3-7-3-9-7-2-5-7-6-10-9l-11-12-21-15-4-2q-2 0-3-2h-1l-2-1-2-1h-2l-7-3h-1l-1-2a1 1 0 0 1-1 0v-1l12-15 3-7 4-13q5-16 6-27c0-10 0-19-2-28a2 2 0 0 1 2-3h2l32 12q6 2 13 8c16 11 32 22 32 44 0 4-2 8-1 12v1l1 3 3 3 2 3 1 3v3l1 8 1 10v24l1 20v5l1 5 1 6 1 7 1 5 7 22 5 12 4 11 3 11 1 7c1 3 3 7 3 11 0 6 1 11 5 16a2 2 59 0 0 3 1l2-1h1v1l2 4h1l2 3-4 12-2 7v11l-6 28-3 20-1 5-1 5-1 8-5 28-1 2-3 31-1 4q-1 18-4 28-3 15-12 33l-14 23c-5 6-9 13-12 20-6 12-15 21-27 28l-16 7-12 5-17 9-17 8q-13 5-28 8l-2 1h-4c-2 1-4 3-7 3l-16 2-6 1h-15l-18-1-48-7-11-3c-2-1-4-3-7-3l-3-1-18-10q-18-12-31-30l-13-22-21-42-12-24-10-16-6-13-6-12-12-25-1-4q1-4-1-6-5-13-7-27l-3-8-4-6-2-5v-31l1-4 1-7 1-6 1-6 1-6v-5l-2-8v-8l3-24 3-19 5-41v-19l-1-12v-28l1-7 1-5q3-21 11-39l8-14v-1l1-2q3-3 3-8l1-8-1-3 8-8 8-7q22-17 46-28 8-3 17-3l3-1c4-2 6-4 11-3l16 4q13 5 24 16l7 11 11 13 10 9Zm103 187h-5l-11 3-25 13q-3 1-3 4 0 2 2 2l18-8 16-8q7-2 11 4l-10 2q-6 2-15 8l-13 10-1 1a2 2 5 0 0 2 2h9a3 3 0 0 0 3-1q5-12 17-14 3-1 3 2c0 7-2 15 8 16l7 1h22a4 4-86 0 0 4-3l1-7c0-3 3-5 5-2q3 2 4 5a3 3-87 0 0 2 2l14 5c7 3 13 3 21 3l5-1q12-4 23-10 2-1-1-1c-2-1-5 0-8 1q-12 6-24 5l-1-3q-3-4-4-9l-2-2q-15-10-30-15-10-4-22-5l-5-1h-15l-2 1Zm-125 34c1 1 3 1 4-1a2 1 37 0 0-1-1q-6-9-16-14-11-6-28-11-12-3-23-1-16 4-34 12a2 2-79 0 0-1 1q-2 2-1 3l3 1 8-4 9-3 11-4 4 1a2 2 0 0 0 3 0l4-1c13-1 28 2 39 8q11 5 19 14Zm-121 20 1 1q7 3 15 3a1 1 0 0 0 0-1c-3-3-6-3-9-5l-4-2q12-7 26-4h1q3 0 1-1c-3-2-6-6-2-8l9-3c3-1 4 3 4 5l1 8v1h2q16 1 31-2c3 0 6-3 6-7l-1-12q0-3 3-2h1l13 11q2 2-1 3l-8 6a1 1-31 0 0 0 1q1 2 2 1 6-4 12-5h8q5 1 2-3l-7-7c-7-8-16-12-26-14l-10-1q-17 0-33 6-21 9-38 24-5 5-11 2l-6-3a2 2 0 0 0-3 1l1 2 20 5Zm39-8h-1q-1 0 0 0h2v-1l-1 1Zm28 14-15 3q-8 2-18 2l-6-2-2 1v3c3 2 6 4 9 4l2 1h2l10 1 19-3 19-4q10-3 18-11a1 1 0 0 0-1-1h-4l-12 3-15 3h-6Zm26 67q-4 3-4 7l-3 3q-5 3-7 8l-3 3-5 6-5 5-8 9-5 6-6 5-8 7v1l1 2h2l52-51 9 8 5 2 4 3q5 4 12 3l9-4a1 1 50 0 1 1 1c4 3 8 7 13 9q5 3 11 3l8-1q4-3 6-7c3-5 11-8 17-9h13l6 1 9 1c2 0 4-1 5-3q5-6 6-13l2-5a2 2 0 0 1 3 0l7 7 5 7 21 21 2 1 2-1-1-1-1-2-1-1-7-10-6-6-6-7-4-5-11-10-8-10q-1-2-3-1h-1l-1 2 3 6v8c1 6-2 13-6 17q-3 4-5 2l-1-1c-6-5-13-7-20-5-9 2-16 7-20 15q-2 4-6 6c-7 3-17 0-22-5l-6-7q-7-7-17-9c-7-2-9 8-15 6-5-2-9-6-9-11l1-6 11-18v-1h-1q-9 8-14 19Zm95 94q-9 1-13 3l-8 4q-9 4-18 0c-5-2-11-4-17-4h-5l-8 1-21 8-6 4q-17 0-34 3l-3 1a1 1 0 0 0 1 2l5 1 38 2h40c9-1 20 0 30-2 9-1 19-3 29-2l26 1 32 1q10 0 15 2 9 3 16 9l2 1a1 1 72 0 0 0-1c-1-3-3-7-6-9q-6-5-11-6-10-3-23-4l-12-7-8-5-16-3h-25Z" class="G"/><path d="M848 281h-2l-32-12h-2a2 2 0 0 0-2 3c2 9 2 18 2 28q-1 11-6 27l-4 13q0-1 0 0l-1-1 2-5v-1h-1v1h-1l-3 7a1 1-66 0 1-1 0v-1l4-10 6-24q2-10-1-19-2-8-8-14c-3-2-6-5-10-4a2 2 0 0 0-1 3l1 3 7 18q4 8 3 17v-4l-1-1-1-2-12-22-7-7a1 1 0 0 1 1 0l4 4 3 3 4 6 3 5 1 1q1 0 0 0l-1-4-2-4-2-4-1-3c0-3-2-5-1-8a3 3 1 0 1 2-2h4c4 1 7 4 10 8l5 8 2 7v3h1l1-5-1-3v-3l-2-12c1-2 3-4 5-3l7 2 5 2 4 1 16 6 3 2Z" class="E"/><path d="M801 330q0-2-2-2h-4a1 1 45 0 1-1 0c-2-1-1-2-1-3v-4l-4-5-13-3h-5a2 2 63 0 0-1-1h-13l-4 1h-4l-5 1-4 1-12 1-6 2c-3 1-5-1-7-2l-5-2h-5q-4-1-10 1l-10-7q-5-4-10-5c-8-2-13-8-14-16q-1-3 1 0l10 12q6 5 14 5l6-3q1-4 3-4l16 1q17-1 29-5 18-6 33-18l4-1 7 7 12 22 1 2 1 1v4q1-9-3-17l-7-18-1-3a2 2 0 0 1 1-3c4-1 7 2 10 4q6 6 8 14 3 9 1 19l-6 24Z" class="D"/><path d="M848 281q18 9 31 22 7 7 11 18l1 7 1 8q0 2 1 0l1-4a1 1-10 0 1 0-1q3-2 6 0c7 5 8 12 11 20l6 14q5 17 5 36v8q-1 6 1 13c1 6 5 11 7 17l4 19 1 9 3 26-1 17 1 11v8l1 3 2 9 1 2 1 4 4 9 2 5 1 11v1h1l1-1v-4l4-14 1-2 1-4 4-11 5-12 2-5c2-4 5-8 8-10l3-3 1 1-8 7-2 3q-12 27-19 55 1 2-1 3a1 1 0 0 1-1-1l-2-7q0-10-5-19l-2-3 1-1-4-16-1-15-1-24-1-20-4-22-1-3v-3l-6-13q-3-8-3-14v-26q-2-15-7-28l-4-11c-2-7-5-14-11-18-1-1-4-2-4 1l-2 10c0 2-1 2-2 3v3l-1-3v-1c-1-4 1-8 1-12 0-22-16-33-32-44q-7-6-13-8h2Zm-137 17-16-1q-2 0-3 4l-6 3q-8 0-14-5l-10-12q-2-3-1 0c1 8 6 14 14 16q5 1 10 5l10 7 24 29 6 8 6 7 6 6-8-7-3-3-3-5-4-5-3-3-20-24-5-5-15-9-6-2q-8-5-11-15l1-2a2 2 0 0 1 3 0c4 6 8 12 14 16l4 2h5c3-1 5-2 6-4q1-3 3-3h14l1 1q2 0 1 1Z" class="B"/><path d="M592 310h-7 7Z" class="C"/><path d="m510 310 1 3-1 8q0 5-3 8l-1 2v1l-8 14q-8 18-11 39l-1 5-1 7v28l1 12v19l-5 41-3 19-3 24v8l2 8v5l-1 6-1 6-1 6-1 7-1 4v31l2 5 4 6 3 8q2 14 7 27 2 2 1 6l1 4 12 25 6 12 6 13 10 16 12 24 21 42 13 22q13 18 31 30l18 10 3 1c3 0 5 2 7 3l11 3 48 7 18 1h15l6-1 16-2c3 0 5-2 7-3h4l2-1q15-3 28-8l17-8 17-9 12-5 16-7c12-7 21-16 27-28 3-7 7-14 12-20l14-23q9-18 12-33 3-10 4-28l1-4 3-31 1-2 5-28 1-8 1-5 1-5 3-20 6-28v-11l2-7 4-12q5 9 5 19l2 7a1 1 0 0 0 1 1q2-1 1-3l2 9v43l-3 30-1 10-1 8-1 5v5q-3-1-3 2l1 6-4 2a2 2 0 0 0 0 1l-1 3-2 2-1 2-2 4-1 2-1 8-2 6-1 7-1 5-1 4-1 10-1 4q0 3-2 5v1l-2 4-1 4-1 12v1-1 1l-1 3v1l-2 2-2-4a1 1 0 0 0-1 0c-4 7-6 15-7 23 0 3-2 7-4 10q-8 13-19 24l-9 9q-20 22-46 33-22 10-47 14l-57 6-4 1-22 1h-29l-45-6-13-4-20-7h-3l-1 1q-2 1 1 2 30 13 61 20c22 5 45 4 68 2l54-8 13-2 22-6 20-7q21-9 39-25l14-13c4-4 9-6 14-7l-1 9v1l-2 6-1 4q-3 9-10 20l-17 25-5 7-8 10-10 12-4 5-7 3-6 4-7 5-8 2-5 1h-4a2 2-54 0 0-1 0l-3 1h-18l-4-1-4-1-28-1-8 1-8 2-9 3-9 3-7 1h-1q-4 3-9 3l-13-1-10-1-9 1-9 1-10 1h-5l-5 1h-3l-4-1h-1l-4-1-4-1q-11-3-17-10l-4-5-4-4-6-9-7-9-5-7-8-16-2-4-10-18-2-7-2-8-2-5v-1l-1-1-1-2-5-7-8-12a2 2 57 0 0-3 0l-3 2-2-14q-2-11-6-21l-21-47-7-19-5-22c-1-8-7-8-14-9 4-2 8-5 9-8v-4l-2-5v-1l-1-4-1-4q-2-17-8-31l-4-4q-2-1-2-3-1 0 0 0c4 0 6-3 4-7l-1-4v-2l-1-3v-3l-1-7-1-2v-4l-1-3-1-3v-1l-1-5 3-13 1-11v-11l-1-6v-8l-1-7v-9l-3-42v-32q0-14 3-36l3-21q3-17 8-31l12-27q11-21 28-38Zm-39 288v16-19 3Z" class="D"/><path fill="#ddd" d="M585 310h7l12 6 7 2 7 2 8 3c3 1 4 0 6-1l5-3 6-2q6 0 10-3h5l3 1 3 1q4 0 7-3 19 12 35 26l5 5 10 12c10 14 25 22 42 18q13-3 24-12v1a1 1 0 0 0 1 0l1 2h1l7 3h2l2 1 2 1h1q1 2 3 2l4 2 21 15 11 12c3 3 8 4 10 9 2 4 6 4 9 7 3 2 4 6 4 10l2 15v7c0 5 1 8 3 12q2 3 2 7l-1 2-6 8c-3 3-6 6-10 3l-3-1v-1a1 1-43 0 0-1 0l-1 1q-11-7-24-10l-9-1-7-1-12-1h-8l-21-3q-14-1-28 5l-3-1-3-3-2-2-1-1-10 1q-8 2-13 7-4 4-2 9l1 9 1 3v5l1 4a2 2 0 0 1 0 1v2l1 1v7c-2 3-1 6-1 8l-1 6v2l-2 17v40l1 5q1 16-1 34l-2 3q-3 4-8 4-8 2-15 1c-4 0-11-2-14-5l-2-3-1-2q-2-4-2-11l1-11v-9l2-16v-8l1-6v-16l-1-15v-38l-1-7-1-3q-1-5-5-8l-5-3-5-1c-6-4-12-5-19-5l-3 1-12 6h-30l-14 2-1 1h-5l-1 1-20 4v-2h-1l-1 1-1-1h-1l-2 1-1-1-1-1q2-4 0-3-2-1-5 1a1 1 0 0 0 0 1l-1 3h-1q-2 0-2-2h-2l-1 1q-1 2-3 2v-6l-2-4v-7l-1-5-2-7-1-8-2-7v-1l-1-5-1-5-1-13v-5l2-9q3-8 3-16l1-5 1-8 1-6 3-7 4-4 4-4 4-5 5-5c3-3 6-7 8-12 2-3 4-6 8-7l4-2 14-5 8-1h4Z"/><path d="m581 310-8 1 8-1Z" class="C"/><path d="M773 313h3l13 3 4 5v4c0 1-1 2 1 3a1 1 45 0 0 1 0h4q2 0 2 2l-4 10q-9 16-24 26c-6 4-15 8-22 6q-3 0-7-3l-7-4-6-6-6-7-6-8-24-29q6-2 10-1h5l5 2c2 1 4 3 7 2l6-2 12-1 4-1 5-1h4l4-1h13a2 2 63 0 1 1 1h2Z" class="F"/><path d="M776 313h-3 3Zm-265 0-1 8 1-8Z" class="C"/><path d="M658 314h-5 5Z" class="B"/><path d="M941 546h-1l1-1-3-3v-1h-1l-2 1a2 2 59 0 1-3-1c-4-5-5-10-5-16 0-4-2-8-3-11l-1-7-3-11-4-11-5-12-7-22q1-2-1-5l-1-7-1-6-1-5v-5l-1-20v-24l-1-10-1-8q2-2 0-3l-1-3-2-3-3-3v-3c1-1 2-1 2-3l2-10c0-3 3-2 4-1 6 4 9 11 11 18l4 11q5 13 7 28v26q0 6 3 14l6 13v3l1 3 4 22 1 20 1 24 1 15 4 16-1 1Z" class="D"/><path d="m530 347-4 4q1-3 4-4Zm367 11q2 1 0 3v-3Zm-378 4-1 6 1-6Z" class="C"/><path d="m518 368-1 8-1-2 2-6Z" class="D"/><path d="m516 374 1 2-1 5q0 8-3 16l2-6v-6l1-11Z" class="C"/><path d="m975 418 1 2v17l-1 2v-21Zm0 21v22l-1-5v-8a2 2 38 0 1 0-1l1-8Z" class="B"/><path d="m904 451-1-5q2 3 1 5Zm-385 6 1 5-1-5Z" class="C"/><path d="M975 461v3l-1 3v11l-1-10 1-5 1-2Z" class="B"/><path d="m734 463 2 2 1 1v1h-1q-2-1-2-4-1 0 0 0Z" class="F"/><path d="M851 480q17 11 24 30c1 2 1 5-1 6-2 0-4-1-5-3l-3-1c-20-12-43-20-65-23l-34-3c-14 0-27 2-40 5-5 0-7-3-5-7q3-8 10-12l7-4 3 1q14-6 28-5l21 3h8l12 1 7 1 9 1q13 3 24 10Zm-235-9q18 7 29 21a1 1 52 0 1 0 2h-2c-7-3-12-4-19-4q-19 0-40 3-36 5-62 29l-4 4-2 2-12 8h-2l9-18q3-10 8-18 10-15 26-21l20-4 1-1h5l1-1 14-2h30Z" class="B"/><path d="M537 476v-3q2-1 0 3Z" class="F"/><path d="M660 473q4 3 5 8l1 3 1 7v38l1 15v16l-1 6v8l-2 16v9l-1 11q0 7 2 11-2-2-2-5l-1-2v-12l1-5 1-9v-9l1-12 1-4v-6l-1-22v-46l-1-5-2-6-3-5Zm-123 3v2h-1l1-2Z" class="D"/><path d="M522 477v2-2Z" class="C"/><path d="m974 478 1 10v3l1 2a2 2-58 0 1 0 1l1 4 1 1v1h-1l-2-6v-1l-1-4v-1l-1-1 1-9Zm-539 10 1 15v16l7 14 2 8 1 5 1 6 1 6 2 7v8l-3-15-2-15-10-24v-31Z" class="B"/><path d="M791 499q2 2 5 1 12 1 22 5 15 5 30 15l2 2q1 5 4 9l1 3q-15-5-28-12c-6-4-12-8-18-10l-7-2h-25q-4-6-11-4l-16 8-18 8q-2 0-2-2 0-3 3-4l25-13 11-3h5l2-1h15Z" class="D"/><path d="M774 500h-5 5Zm17-1 5 1q-3 1-5-1Z" class="C"/><path d="M649 534q-8-9-19-14c-11-6-26-9-39-8l-4 1a2 2 0 0 1-3 0l-4-1-11 4-9 3-8 4-3-1q-1-1 1-3a2 2-79 0 1 1-1q18-8 34-12 11-2 23 1 17 5 28 11 10 5 16 14a2 1 37 0 1 1 1c-1 2-3 2-4 1Z" class="E"/><path d="M948 683v-5l1-5 1-8 1-10 3-30v-43l-2-9q7-28 19-55l2-3 8-7q9-2 21 0 16 2 24 17 4 8 4 16l-1 51q-1 14-5 28l-8 27q-2 9-5 13c-8 15-26 23-43 27-7 2-13 1-19-2l-1-2Zm57-80v17l-7 17c-2 4-5 7-6 11q0 2 1 0l4-3c3-1 4-3 5-6q7-15 10-31v-5c0-5-2-10-3-14l-2-12-1-28c-1-7-4-13-9-18a2 2-43 0 1 0-3c2-1 3-3 5-3q6 3 8 7 2 2 2 7l1 15 1 4 2 17q0 1 0 0 2-12 2-25 1-7-1-15c-2-10-12-15-21-11q-9 4-15 11-7 9-14 22l1 2a1 1 0 0 0 1 0q11-11 19-23c1-2 5-3 6 0 5 7 6 17 7 26l2 25 2 16Zm-18-1-8-16-11-18q-2-3-5-1v7q7 13 12 27l3 6c3 6 7 11 14 12l3-1v-1l-1-3-7-12Zm30-25v3-3Zm-47 46h1q2 1 4-1 3-2 1-4l-4-2a3 3 0 0 0-3 2l-1 3 1 1 1 1Z" class="F"/><path d="M855 534q12 1 24-5c3-1 6-2 8-1q3 0 1 1-11 6-23 10l-5 1c-8 0-14 0-21-3l-14-5a3 3-87 0 1-2-2q-1-3-4-5c-2-3-5-1-5 2l-1 7a4 4-86 0 1-4 3h-22l-7-1c-10-1-8-9-8-16q0-3-3-2-12 2-17 14a3 3 0 0 1-3 1h-9a2 2 5 0 1-2-2l1-1 13-10q9-6 15-8l10-2h25l7 2c6 2 12 6 18 10q13 7 28 12Zm-52-11a11 4 6 0 0-11-5 11 4 6 0 0-11 3 11 4 6 0 0 11 5 11 4 6 0 0 11-3Zm-272 27-3 3v1l-20-5-1-2a2 2 0 0 1 3-1l6 3q6 3 11-2 17-15 38-24 16-6 33-6l10 1c10 2 19 6 26 14l7 7q3 4-2 3h-8q-6 1-12 5-1 1-2-1a1 1-31 0 1 0-1l8-6q3-1 1-3l-13-11h-1q-3-1-3 2l1 12c0 4-3 7-6 7q-15 3-31 2h-2v-1l-1-8c0-2-1-6-4-5l-9 3c-4 2-1 6 2 8q2 1-1 1h-1q-14-3-26 4Zm46-19v2q0 2 2 1c2-1 6-4 8-3l7 1c4 0 7-3 4-6q-1-2-2-1l-16 3-3 3Z" class="B"/><ellipse rx="11.1" ry="4" transform="rotate(6 -4756 8077)" class="G"/><path d="m435 519 10 24 2 15 3 15v3l1 4 2 9-2 11-10 38v3c1 2 3 1 5 1l5 1q0 1 0 0c0-1-4-2-3-5v-8q3-15 9-28l1 5v1l1 3 1 3v4l1 2 1 7v3l1 3v2l1 4c2 4 0 7-4 7q-1 0 0 0 0 2 2 3l4 4q6 14 8 31l1 4 1 4v1l2 5v4c-1 3-5 6-9 8q-17-3-30-16-6-5-8-14c-3-10-5-18-10-27l-5-18q-4-22-4-44c0-11 0-23 2-33q0-6 4-13l8-16 9-10Zm-12 81v19l3 29h1l1-1v-12l-1-9-1-8v-20l1-11v-2l-1-1-1-6h-3v1l1 21Z" class="F"/><path d="m1014 558-1-4-1-15q0-5-2-7-2-4-8-7c-2 0-3 2-5 3a2 2-43 0 0 0 3c5 5 8 11 9 18l1 28 2 12c1 4 3 9 3 14v5q-3 16-10 31c-1 3-2 5-5 6l-4 3q-1 2-1 0c1-4 4-7 6-11l7-17v-17l-2-16-2-25c-1-9-2-19-7-26-1-3-5-2-6 0q-8 12-19 23a1 1 0 0 1-1 0l-1-2q7-13 14-22 6-7 15-11c9-4 19 1 21 11q2 8 1 15 0 13-2 25 0 1 0 0l-2-17Z" class="E"/><path d="m580 528 16-3q1-1 2 1c3 3 0 6-4 6l-7-1c-2-1-6 2-8 3q-2 1-2-1v-2l3-3Z" class="G"/><path d="m940 546-2-4 3 3-1 1Z" class="C"/><path d="m567 546 1-1v1h-2q-1 0 0 0h1Zm-36 4 4 2-6 3-1-1v-1l3-3Z" class="D"/><path d="M535 552c3 2 6 2 9 5a1 1 0 0 1 0 1q-8 0-15-3l6-3Z" class="B"/><path d="M595 560h6l15-3 12-3h4a1 1 0 0 1 1 1q-8 8-18 11l-19 4-19 3-10-1h-2l-2-1c-3 0-6-2-9-4v-3l2-1 6 2q10 0 18-2l15-3Zm-23 5h-10q-1 0 0 0h10q1 0 0 0Z" class="D"/><path d="m979 586 8 16 7 12 1 3v1l-3 1c-7-1-11-6-14-12l-3-6q-5-14-12-27v-7q3-2 5 1l11 18Z" class="E"/><path d="M937 575v4-4Z" class="C"/><path d="M426 598q-3 0-3 2l-1-21v-1h3l1 6 1 1v2l-1 11Z" class="D"/><path d="M426 598v20l1 8 1 9v12l-1 1h-1l-3-29v-19q0-2 3-2Zm314 46-4 3-6-1h-13c-6 1-14 4-17 9q-2 4-6 7l-8 1q-6 0-11-3c-5-2-9-6-13-9a1 1 50 0 0-1-1l-9 4q-7 1-12-3l-4-3-5-2-9-8-3-1a2 2 0 0 1 0-2l2-8q5-11 14-19h1v1l-11 18-1 6c0 5 4 9 9 11 6 2 8-8 15-6q10 2 17 9l6 7c5 5 15 8 22 5q4-2 6-6c4-8 11-13 20-15 7-2 14 0 20 5l1 1Z" class="B"/><path d="m736 647 4-3q2 2 5-2c4-4 7-11 6-17v-8l-3-6 1-2h1q2-1 3 1l8 10 11 10 4 5 6 7 6 6 7 10 1 1 1 2 1 1-2 1-2-1-21-21-5-7-7-7a2 2 0 0 0-3 0l-2 5q-1 7-6 13c-1 2-3 3-5 3l-9-1Zm234-24-1-1-1-1 1-3a3 3 0 0 1 3-2l4 2q2 2-1 4-2 2-4 1h-1Z" class="D"/><path d="M472 617v4-4Z" class="C"/><path d="m621 627-2 8a2 2 0 0 0 0 2l3 1-52 51h-2l-1-2v-1l8-7 6-5 5-6 8-9 5-5 5-6 3-3q2-5 7-8l3-3q0-4 4-7Z" class="D"/><path d="m946 691-2 10a678 678 0 0 0-23 109l-2 33c-1 24-2 43-1 65l-2 14v10c1 7 6 11 11 15l13 9 6 5c4 4 9 6 12 11q7 12 4 27l-6 24q-5 14-14 27-3-2-7-1-7 2-11 5h-5l-1 1h-4l-3 1-5 1-2 1h-1l-2 1-3 1-2 1-7 7-17 17-13 14-2 3-3 3q-1 2-3 1l-1 1h-2a1 1 0 0 0-1 0l-2 2-3 1-14 11-3 2-3 1h-3l-3 1h-2l-8 2-3 1-4 1h-15l-5 1h-20l-3 1h-13l-7-1h-11l-28-1v-1h-1l-4-1-3-1-3-1-3-1h-12l-14-1c-3 0-6 1-9-1h-3l-3-1-12-2h-3l-4-2h-2l-1-1-2-1h-7a2 2 60 0 1-2 0l-3-3h-1l-5-1h-1q-3-3-8-4l-3-1a1 1 0 0 1-1-1v-3l-2-2-5-3-2-4-5-4-1-1-6-4-6-3-1-1-4-4q-7-4-12-12l-1-1-1-2-2-2q-4-5-9-8l-3-3q-6-5-10-13l-6-11-2-3-1-2-1-3-1-3-8-13-2-4-2-4-4-5h-3v2q-8-22-10-46 15-12 33-20c6-2 13-5 18-10l1-3 1-17q-4-25-6-51l3-2a2 2 57 0 1 3 0l8 12 5 7 1 2 1 1v1l2 5 2 8 2 7 10 18 2 4 8 16 5 7 7 9 6 9 4 4 4 5q6 7 17 10l4 1 4 1h1l4 1h3l5-1h5l10-1 9-1 9-1 10 1 13 1q5 0 9-3h1l7-1 9-3 9-3 8-2 8-1 28 1 4 1 4 1h18l3-1a2 2-54 0 1 1 0h4l5-1 8-2 7-5 6-4 7-3 4-5 10-12 8-10 5-7 17-25q7-11 10-20l1-4 2-6v-1l1-9q10-13 16-28l4-14 3-15 2-2v-1l1-3v-1 1-1l1-12 1-4 2-4v-1q2-2 2-5l1-4 1-10 1-4 1-5 1-7 2-6 1-8 1-2 2-4 1-2 2-2 1-3a2 2 0 0 1 0-1l4-2Z" class="F"/><path d="M735 721h-19 19Z" class="C"/><path d="M735 721h6l16 3 8 5 12 7-10 1-39-3c-10 0-20 0-30 3-9 2-17 2-26 2l-12-1h-34l-6-1 6-4 21-8 8-1h5c6 0 12 2 17 4q9 4 18 0l8-4q4-2 13-3h19Z" class="D"/><path d="M777 736q13 1 23 4 5 1 11 6c3 2 5 6 6 9a1 1 72 0 1 0 1l-2-1q-7-6-16-9-5-2-15-2l-32-1-26-1c-10-1-20 1-29 2-10 2-21 1-30 2h-40l-38-2-5-1a1 1 0 0 1-1-2l3-1q17-3 34-3l6 1h4-1 31l12 1c9 0 17 0 26-2 10-3 20-3 30-3l39 3 10-1Zm141 48-3 15-4 14q-6 15-16 28c-5 1-10 3-14 7l-14 13q-18 16-39 25l-20 7-22 6-13 2-54 8c-23 2-46 3-68-2q-31-7-61-20-3-1-1-2l1-1h3l20 7 13 4 45 6h29l22-1 4-1 57-6q25-4 47-14 26-11 46-33l9-9q11-11 19-24c2-3 4-7 4-10 1-8 3-16 7-23a1 1 0 0 1 1 0l2 4Z" class="B"/><path d="M754 880h-4 4Z" class="C"/><path d="M477 943q2 24 10 46l21 42 8 13q19 26 40 48 15 15 29 24l30 19q42 25 91 27 26 2 53 0l19-3 25-4c8 0 15-2 22-4l9-3 32-18 19-15 11-10 13-12 17-20 8-11 8-12q9-13 14-27l6-24q3-15-4-27c-3-5-8-7-12-11l-6-5h3l1 2c5 5 11 8 15 14l4 11v20l-1 4-4 11-2 8-8 16q-5 11-16 25l-5 6-4 5-6 8-13 14-10 9-10 8q-3 4-8 7l-9 6-13 9-22 11a2 2 66 0 0-1 3v2h-2l-12 4q-6 2-9-2l-1-1-32 5-6 1h-5l-7 1-7 1a2 2 14 0 0-2 1l-2 2-9 1-6 1h-4l-1 1h-24l-4-1h-5l-3-1h-2l-10-1c-3 0-4-4-7-4l-22-4-5-1-6-2-14-8a2 2 85 0 1-1-1l-1-2a1 1 0 0 0-2-1q-2 1-5-1a2 2-18 0 0-1-1h-5l-3-1-5-2q-7 0-11-4a2 2 0 0 0-1-1l-4-2-3-2q-3-3-7-4l-12-7-8-5c-8-4-17-8-23-15q-2-3-5-4l-8-6q-2-2-2-6l-1-6-1-7c0-3-2-7-5-10q-3-5-3-10c0-3-3-6-5-8a2 2 0 0 1 1-4l3-1h1l2 1q2 1 1-1l-4-7-3-7-13-24-7-16-4-18-3-20a2 2-7 0 0-2-2h-9 12Zm242 227h4-4Z" class="B"/><path d="M465 943h9a2 2-7 0 1 2 2l3 20 4 18 7 16 13 24 3 7 4 7q1 2-1 1l-2-1h-1l-3 1a2 2 0 0 0-1 4c2 2 5 5 5 8q0 5 3 10c3 3 5 7 5 10l1 7 1 6q0 4 2 6l8 6q3 1 5 4c6 7 15 11 23 15l8 5 12 7q4 1 7 4l3 2 4 2a2 2 0 0 1 1 1q4 4 11 4l5 2 3 1h5a2 2-18 0 1 1 1q3 2 5 1a1 1 0 0 1 2 1l1 2a2 2 85 0 0 1 1l14 8 6 2 5 1 22 4c3 0 4 4 7 4l10 1h2l3 1h5l4 1h24l1-1h4l6-1 9-1 2-2a2 2 14 0 1 2-1l7-1 7-1h5l6-1 32-5 1 1q3 4 9 2l12-4h2v-2a2 2 66 0 1 1-3l22-11 13-9 9-6q5-3 8-7l10-8 10-9 13-14 6-8 4-5 5-6q11-14 16-25l8-16 2-8 4-11 1-4v-20l-4-11c-4-6-10-9-15-14l-1-2 13 4h3l5 1h4l3 1 20 8 21 4 30 9 63 23-5 2-5 2-10 4-4 2h-3l-1 1-18 4-8 4-20 16-13 10-5 5-9 13-7 12-3 4c-2 4-4 9-7 12l-3 8q-7 13-19 22l-3 2h-3l-1 1q-7 1-13 4-9 4-17 11l-4 3-8 5-6 2-6 2-4 1-7 3h-2l-6 3-11 8-6 4-7 2-6 2h-22l-4-1-8-1-5 1h-6l-16 1-3 1-1 1h-5l-4-1-7-2-10-1-8 1-9 1q-3-2-8-1l-13 1h-9l-9-1-10-1-9-1-7-1-15-4h-3l-6-1h-1l-7-1-21-5-9-3-12-5-8-2h-3q-5 1-9-2l-6-2-11-9-7-3-11-4-6-2-4-3-5-4-5-3-5-3q-7-3-10-6l-11-11-2-2-5-6-4-5-1-2-1-3-1-4-1-11q-1-7-7-15l-3-5-2-3-6-10q-2-4-5-6l-4-3-4-3q-2-8-8-14v-1l-1-1-2-2v-1l-2-2-2-3-3-3-3-4q-5-5-13-9l-2-2-9-5-20-7-3-1-13-3q-6-1-12 1l-6 2-6 2-8 1a2 2-32 0 1-2 0h-1l-1 1-5 2-2 1-6 1-6 2q-4 2-8 0l11-3 95-28q19-5 42-6Z" class="C"/><path d="m971 962-3-1h-4l-5-1h-3c6 0 10-1 15 2Z" class="B"/><path d="M726 1180q6 1 13-1 5-1 8 1l23-1 6 1 6 3a6 6 49 0 0 2 0l6-1 1-1 9-1h17a2 2-50 0 0 1-1l6 1h7l8 1h11v-1h-1 6l6-2 7-2 6-4 11-8 6-3h2l7-3 4-1 6-2 6-2 8-5 4-3q8-7 17-11 6-3 13-4l1-1h3l3-2q12-9 19-22l3-8c3-3 5-8 7-12l3-4 7-12 9-13 5-5 13-10 20-16 8-4 18-4 1-1h3l4-2 10-4 5-2 5-2 66 20 70 18c31 8 61 20 88 35q23 12 40 30l22 25q8 9 11 17l5 17 7 21 3 12c2 5 2 10 2 16 1 10 4 21 3 32l3 27 1 15 2 11q4 16 4 35v78l2 12 4 21h-272q3-13 9-24l1-4q8-16 18-29c3-6 5-10 6-17l6-16 9-12 6-15 4-6 2-4 9-15v-5l-1-6-5-16-5-9q-1-2-5-2h-1v2l-6 5-2 2a2 1 56 0 0 0 1l-1 3v1l-2 8-1 1-1 4-1 3q-2 2-2 5l-1 4-1 1-1 3h-1v2l-1 1-1 1-3 7v1l-1 1v1l-3 8v1l-1 4v1l-2 4-1 3h-1v3h-1q-1 4-4 7l-1 1-2 10-1 1v3l-1 1v4l-1 3a2 2-33 0 1 0 1v8l-1 1v5l-1 1v1l-1 5-1 4-2 5v1l-2 3v1l-2 4v1l1 1a1 1 72 0 1-1 1h-2l-2-3v-9q0-2-1 0l-2 3c-1 2-4 7-2 9l-1 1c-2-1-2-2-2-4l-1-2v-10l1-6 2-8 3-15 2-10 8-19 6-17 2-7 3-8q4-10 5-17l1-3v-26l-1-1v-3q3-8-1-14h-1q-2 2-2 5l-1 5-3 9v1l-1 4-1 1-3 10v4l-1 3v4l-1 1v5l-3 11v5l-1 1v2l-1 3v2l-2 6-2 4v3l-1 1v2l-1 4v10a1 1-23 0 1-1 1v1l-1 6v2l-1 1v2l-2 4-1 1v1l-2 2a1 1 54 0 1-1 0l-1-4v-5l1-3v-4l1-1v-3a2 2-33 0 1 1-1v-5l1-4v-15q0-1 0 0l-2 5-2 16q0 8-4 18l-3 6a1 1 51 0 1-1 0v-9l3-21 1-12 1-12 4-31 1-7 6-31 3-20 1-4v-3c1-3 2-8 0-11v-9q0-2-1 0l-5 10v2l-1 3v14l-1 2v2l-2 10-1 6-1 3v3l-1 7v7l-1 10-1 9v4l-1 5-1 8-2 7-1 3v4l-1 4-2 14-1 3-1 4v7l-1 3-1 4a3 3 58 0 1 0 2v4l-1 1v2l-1 3a1 1-30 0 0 0 1l-1 4v1l-1 7-1 5-1 4v3l-2 12v3l-1 6v2-1 1l-1 3v1q0 2-2 2a1 1 63 0 1-1 0l-4-7q-1-4-2 0l-1 6q-1 2-2 1l-2-3-5-12-1-5c0-5 0-12-2-17q-3-5-3-11c-1-2-1-4-3-5a1 1 0 0 0-2 1v16h1v3l1 1v3l1 2 2 9v4l1 5 1 3v3l1 3v3l1 11H43l-4-6-2-3-4-7-4-6-1-1q0-5-2-7v-62l3-15c2-7 3-14 3-22v-59l7-34 2-9 2-8 7-21q9-29 25-55l3-6 5-7 6-6 12-14q16-18 43-39l8-6 8-7 7-6 8-5q6-3 12-9 4-5 10-8l4-1 5-2 13-8q7-3 17-11l5-2q6 1 13-4l1-2 22-3q21-1 40-7 4 2 8 0l6-2 6-1 2-1 5-2 1-1h1a2 2-32 0 0 2 0l8-1 6-2 6-2q6-2 12-1l13 3 3 1 20 7 9 5 2 2q8 4 13 9l3 4 3 3 2 3 2 2v1l2 2 1 1v1q6 6 8 14l4 3 4 3q3 2 5 6l6 10 2 3 3 5q6 8 7 15l1 11 1 4 1 3 1 2 4 5 5 6 2 2 11 11q3 3 10 6l5 3 5 3 5 4 4 3 6 2 11 4 7 3 11 9 6 2q4 3 9 2h3l8 2 12 5 9 3 21 5 7 1h1l6 1h3l15 4 7 1 9 1 10 1 9 1h9Z" class="E"/><path d="M725 1130h11l7 1h13l3-1h20l5-1h15l4-1 3-1 8-2h2l3-1h3l3-1 3-2 14-11 3-1 2-2a1 1 0 0 1 1 0h2l1-1q2 1 3-1l3-3 2-3 13-14 17-17 7-7 2-1 3-1 2-1h1l2-1 5-1 3-1h4l1-1h5q4-3 11-5 4-1 7 1l-8 12-8 11-17 20-13 12-11 10-19 15-32 18-9 3c-7 2-14 4-22 4l-25 4-19 3q-27 2-53 0-49-2-91-27l-30-19q-14-9-29-24-21-22-40-48l-8-13-21-42v-2h3l4 5 2 4 2 4 8 13 1 3 1 3 1 2 2 3 6 11q4 8 10 13l3 3q5 3 9 8l2 2 1 2 1 1q5 8 12 12l4 4 1 1 6 3 6 4 1 1 5 4 2 4 5 3 2 2v3a1 1 0 0 0 1 1l3 1q5 1 8 4h1l5 1h1l3 3a2 2 60 0 0 2 0h7l2 1 1 1h2l4 2h3l12 2 3 1h3c3 2 6 1 9 1l14 1h12l3 1 3 1 3 1 4 1h1v1l28 1Z" class="G"/><path d="m255 990-1 2q-7 5-13 4l-5 2q-10 8-17 11l-13 8-5 2-4 1q-6 3-10 8-6 6-12 9l-8 5-7 6-8 7-8 6q-27 21-43 39l-12 14-6 6-5 7-3 6q-16 26-25 55l-7 21-2 8-2 9-7 34v-9l1-9v-13l2-12 3-16 2-6 4-17 1-6 3-10 2-6 5-15q2-8 7-14l5-11q2-7 5-11l7-12q4-10 11-18 14-22 35-39 11-10 25-17 49-24 102-29h3Zm535 192-6 1a6 6 49 0 1-2 0l-6-3-6-1-23 1 9-1 8-1 10 1 7 2 4 1h5Zm59-2h1v1h-11l-8-1h-7l-6-1a2 2-50 0 1-1 1h-17l-9 1 3-1 16-1h6l5-1 8 1 4 1h16Zm-110-1q-7 2-13 1l13-1Zm112 1h4-4Zm315 268h-65l-1-11v-3l-1-3v-3l-1-3-1-5v-4l-2-9-1-2v-3l-1-1v-3h-1v-16a1 1 0 0 1 2-1c2 1 2 3 3 5q0 6 3 11c2 5 2 12 2 17l1 5 5 12 2 3q1 1 2-1l1-6q1-4 2 0l4 7a1 1 63 0 0 1 0q2 0 2-2v-1l1-3v-1 1-2l1-6v-3l2-12v-3l1-4 1-5 1-7v-1l1-4a1 1-30 0 1 0-1l1-3v-2l1-1v-4a3 3 58 0 0 0-2l1-4 1-3v-7l1-4 1-3 2-14 1-4v-4l1-3 2-7 1-8 1-5v-4l1-9 1-10v-7l1-7v-3l1-3 1-6 2-10v-2l1-2v-14l1-3v-2l5-10q1-2 1 0v9c2 3 1 8 0 11v3l-1 4-3 20-6 31-1 7-4 31-1 12-1 12-3 21v9a1 1 51 0 0 1 0l3-6q4-10 4-18l2-16 2-5q0-1 0 0v15l-1 4v5a2 2-33 0 0-1 1v3l-1 1v4l-1 3v5l1 4a1 1 54 0 0 1 0l2-2v-1l1-1 2-4v-2l1-1v-2l1-6v-1a1 1-23 0 0 1-1v-10l1-4v-2l1-1v-3l2-4 2-6v-2l1-3v-2l1-1v-5l3-11v-5l1-1v-4l1-3v-4l3-10 1-1 1-4v-1l3-9 1-5q0-3 2-5h1q4 6 1 14v3l1 1v26l-1 3q-1 7-5 17l-3 8-2 7-6 17-8 19-2 10-3 15-2 8-1 6v10l1 2c0 2 0 3 2 4l1-1c-2-2 1-7 2-9l2-3q1-2 1 0v9l2 3h2a1 1 72 0 0 1-1l-1-1v-1l2-4v-1l2-3v-1l2-5 1-4 1-5v-1l1-1v-5l1-1v-8a2 2-33 0 0 0-1l1-3v-4l1-1v-3l1-1 2-10 1-1q3-3 4-7h1v-3h1l1-3 2-4v-1l1-4v-1l3-8v-1l1-1v-1l3-7 1-1 1-1v-2h1l1-3 1-1 1-4q0-3 2-5l1-3 1-4 1-1 2-8v-1l1-3a2 1 56 0 1 0-1l2-2 6-5v-2h1q4 0 5 2l5 9 5 16 1 6v5l-9 15-2 4-4 6-6 15-9 12-6 16c-1 7-3 11-6 17q-10 13-18 29l-1 4q-6 11-9 24ZM26 1418q2 2 2 7l1 1 4 6 4 7 2 3 4 6H26l-1-3 1-27Z" class="B"/></svg>