<svg xmlns="http://www.w3.org/2000/svg" width="100%" height="100%" viewBox="0 0 839 188" fill-rule="evenodd" stroke-linejoin="round" stroke-miterlimit="2" xmlns:v="https://vecta.io/nano"><path d="M178.085 70.266v3.538c1.914-1.641 4.025-2.871 6.332-3.692s4.811-1.23 7.511-1.23c6.221 0 11.143 1.931 14.766 5.793 2.871 3.077 4.306 7.11 4.306 12.1v19.534c2.222 0 3.863.487 4.922 1.461s1.59 2.247 1.59 3.82c0 1.538-.539 2.794-1.615 3.768s-2.88 1.461-5.409 1.461h-9.485c-2.529 0-4.332-.487-5.409-1.461s-1.615-2.247-1.615-3.82c0-1.538.53-2.794 1.589-3.768s2.701-1.461 4.922-1.461V86.467c0-2.29-.615-3.964-1.845-5.024-1.607-1.367-4.017-2.051-7.229-2.051-2.427 0-4.555.47-6.384 1.41s-4.144 2.931-6.947 5.973v19.534c2.701 0 4.444.256 5.23.769 1.675 1.025 2.512 2.529 2.512 4.512 0 1.538-.538 2.794-1.615 3.768s-2.879 1.461-5.409 1.461h-11.946c-2.529 0-4.332-.487-5.409-1.461s-1.615-2.247-1.615-3.82c0-1.914.821-3.401 2.461-4.46.821-.513 2.581-.769 5.281-.769V80.777c-2.221 0-3.862-.496-4.922-1.487s-1.589-2.256-1.589-3.794.538-2.794 1.615-3.769 2.88-1.461 5.409-1.461h9.997zm100.95 24.148c0 4.033-1.119 7.938-3.358 11.715s-5.571 6.785-9.998 9.024-9.049 3.358-13.868 3.358c-4.785 0-9.365-1.102-13.74-3.307s-7.708-5.204-9.998-8.998-3.435-7.759-3.435-11.894c0-4.204 1.162-8.332 3.486-12.382s5.666-7.237 10.024-9.562 8.912-3.486 13.663-3.486c4.785 0 9.391 1.188 13.817 3.563s7.767 5.572 10.023 9.588 3.384 8.143 3.384 12.381zm-10.51.051c0-3.383-1.213-6.494-3.64-9.331-3.316-3.828-7.674-5.742-13.074-5.742-4.751 0-8.716 1.521-11.895 4.563s-4.768 6.563-4.768 10.562c0 3.281 1.607 6.349 4.82 9.203s7.16 4.281 11.843 4.281c4.717 0 8.682-1.427 11.895-4.281s4.819-5.939 4.819-9.255z" fill="#ec4e5b" fill-rule="nonzero"/><path d="M45.761 93.643l71.329 39.531c3.58 2.005 5.962 3.795 7.143 5.371s1.773 3.581 1.773 6.016c0 3.079-1.11 5.747-3.33 8.003s-4.799 3.383-7.735 3.383c-1.933 0-4.834-1.074-8.701-3.222L0 93.643l106.24-59.082c3.867-2.077 6.732-3.116 8.594-3.116 3.008 0 5.621 1.11 7.842 3.33s3.33 4.87 3.33 7.95c0 2.435-.591 4.44-1.773 6.015s-3.563 3.366-7.143 5.371L45.761 93.643zm747.21 0l-71.328-39.532c-3.581-2.005-5.962-3.795-7.143-5.371s-1.773-3.58-1.773-6.015c0-3.08 1.11-5.73 3.33-7.95s4.834-3.33 7.842-3.33c1.862 0 4.727 1.039 8.594 3.116l106.24 59.082-106.24 59.082c-3.867 2.148-6.732 3.222-8.594 3.222-3.008 0-5.622-1.11-7.842-3.33s-3.33-4.905-3.33-8.056c0-2.435.591-4.441 1.773-6.016s3.562-3.366 7.143-5.371l71.328-39.531zM353.945 75.47c0-.991.205-1.709.615-2.153s.923-.666 1.538-.666c.65 0 1.18.222 1.59.666s.615 1.196.615 2.256v7.383c0 1.025-.205 1.76-.615 2.204s-.94.667-1.59.667a2.03 2.03 0 0 1-1.461-.564c-.393-.376-.623-.991-.692-1.846-.205-2.051-1.264-3.742-3.179-5.075-2.802-1.915-6.511-2.872-11.125-2.872-4.819 0-8.562.975-11.228 2.923-2.017 1.469-3.025 3.11-3.025 4.922 0 2.05 1.196 3.759 3.589 5.127 1.641.957 4.751 1.691 9.331 2.204 5.981.65 10.134 1.384 12.458 2.205 3.316 1.196 5.785 2.854 7.409 4.973s2.435 4.409 2.435 6.87c0 3.657-1.76 6.913-5.281 9.767s-8.681 4.281-15.483 4.281-12.373-1.726-16.714-5.178c0 1.162-.068 1.914-.205 2.256s-.384.632-.743.871-.761.359-1.205.359c-.615 0-1.128-.222-1.538-.667s-.615-1.179-.615-2.204v-8.87c0-1.025.196-1.76.589-2.204s.914-.667 1.564-.667a2.13 2.13 0 0 1 1.564.641c.427.427.64 1 .64 1.718 0 1.572.394 2.888 1.18 3.947 1.196 1.641 3.101 3 5.716 4.076s5.819 1.615 9.613 1.615c5.606 0 9.776-1.042 12.51-3.127s4.102-4.29 4.102-6.614c0-2.666-1.385-4.802-4.153-6.409-2.803-1.606-6.879-2.683-12.228-3.23s-9.186-1.264-11.51-2.153-4.136-2.222-5.435-3.999-1.948-3.691-1.948-5.742c0-3.692 1.812-6.622 5.435-8.793s7.946-3.256 12.971-3.256c5.947 0 10.784 1.453 14.509 4.358zm66.753 1.538v-1.435c0-1.06.205-1.812.615-2.256s.923-.666 1.538-.666c.65 0 1.18.222 1.59.666s.615 1.196.615 2.256v9.741c-.034 1.06-.248 1.812-.641 2.256s-.914.667-1.564.667c-.581 0-1.068-.197-1.461-.59s-.624-1.051-.692-1.974c-.205-2.427-1.803-4.734-4.794-6.921s-7.015-3.282-12.074-3.282c-6.391 0-11.245 2-14.56 5.999s-4.973 8.579-4.973 13.74c0 5.571 1.828 10.169 5.486 13.792s8.391 5.434 14.201 5.434c3.35 0 6.759-.615 10.228-1.845s6.606-3.213 9.408-5.948c.718-.683 1.351-1.025 1.897-1.025.581 0 1.069.196 1.462.589s.589.881.589 1.462c0 1.469-1.726 3.332-5.178 5.588-5.571 3.657-11.775 5.486-18.611 5.486-6.938 0-12.638-2.213-17.098-6.64s-6.691-10.04-6.691-16.842c0-6.938 2.282-12.697 6.845-17.277s10.313-6.871 17.252-6.871c6.596 0 12.134 1.966 16.611 5.896zm39.888-4.357V83.52c5.605-5.059 9.801-8.314 12.586-9.767s5.358-2.179 7.717-2.179c2.563 0 4.947.863 7.152 2.589s3.307 3.033 3.307 3.922c0 .65-.214 1.188-.641 1.615s-.966.641-1.615.641c-.342 0-.633-.06-.872-.179s-.684-.505-1.333-1.154c-1.196-1.196-2.239-2.017-3.127-2.461s-1.761-.666-2.615-.666c-1.88 0-4.144.752-6.793 2.255s-7.238 5.179-13.766 11.023v23.584h19.072c1.06 0 1.812.197 2.256.59s.666.914.666 1.564c0 .615-.222 1.128-.666 1.538s-1.196.615-2.256.615h-33.787c-1.025 0-1.76-.197-2.204-.59s-.667-.897-.667-1.512c0-.581.214-1.068.641-1.461s1.171-.59 2.23-.59h10.408V77.008h-7.947c-1.025 0-1.76-.205-2.204-.615s-.667-.94-.667-1.589c0-.615.214-1.128.641-1.538s1.171-.615 2.23-.615h12.254zm70.29-22.098v11.126h-6.357V50.553h6.357zm.154 22.098v40.092h16.919c1.06 0 1.812.197 2.256.59s.666.914.666 1.564c0 .615-.222 1.128-.666 1.538s-1.196.615-2.256.615h-38.144c-1.026 0-1.761-.205-2.205-.615s-.667-.923-.667-1.538c0-.65.223-1.171.667-1.564s1.179-.59 2.205-.59h16.918V77.008h-12.561c-1.025 0-1.768-.205-2.23-.615a1.97 1.97 0 0 1-.692-1.538c0-.649.222-1.179.667-1.589s1.196-.615 2.255-.615h16.868zm44.502 0v7.844c2.564-3.111 5.315-5.452 8.254-7.024s6.409-2.359 10.408-2.359c4.238 0 8.152.992 11.741 2.974s6.366 4.743 8.331 8.28 2.948 7.255 2.948 11.151c0 6.187-2.213 11.476-6.639 15.868s-9.87 6.588-16.33 6.588c-7.69 0-13.928-3.127-18.713-9.382v25.942h10.459c1.025 0 1.76.197 2.205.59s.666.914.666 1.564c0 .615-.222 1.128-.666 1.538s-1.18.615-2.205.615h-20.559c-1.025 0-1.76-.196-2.205-.59s-.666-.914-.666-1.563.222-1.171.666-1.564 1.18-.59 2.205-.59h5.793V77.008h-5.793c-1.025 0-1.76-.205-2.205-.615s-.666-.94-.666-1.589c0-.615.222-1.128.666-1.538s1.18-.615 2.205-.615h10.1zm37.324 20.866c0-4.956-1.803-9.203-5.409-12.74s-8.006-5.307-13.202-5.307c-5.229 0-9.655 1.778-13.278 5.332s-5.435 7.793-5.435 12.715c0 4.956 1.812 9.212 5.435 12.766s8.049 5.332 13.278 5.332c5.162 0 9.554-1.768 13.177-5.306s5.434-7.801 5.434-12.792zm33.069-20.866h23.379c1.025 0 1.76.205 2.205.615s.666.94.666 1.589c0 .615-.222 1.128-.666 1.538s-1.18.615-2.205.615h-23.379v28.66c0 2.495 1 4.58 2.999 6.255s4.931 2.512 8.793 2.512c2.905 0 6.05-.436 9.434-1.307s6.015-1.854 7.895-2.948c.684-.444 1.248-.667 1.692-.667.547 0 1.026.214 1.436.641a2.11 2.11 0 0 1 .615 1.513c0 .512-.222.991-.667 1.435-1.093 1.128-3.751 2.35-7.972 3.666s-8.263 1.974-12.125 1.974c-5.025 0-9.024-1.179-11.997-3.538s-4.461-5.537-4.461-9.536v-28.66h-7.947c-1.025 0-1.76-.205-2.204-.615s-.667-.94-.667-1.589c0-.615.223-1.128.667-1.538s1.179-.615 2.204-.615h7.947V59.936c0-1.026.205-1.761.615-2.205s.923-.666 1.539-.666c.649 0 1.179.222 1.589.666s.615 1.179.615 2.205v12.715zm-213.412 94.136c.097-.472.268-.814.512-1.025s.513-.318.806-.318c.244 0 .443.078.598.232s.232.33.232.525c0 .147-.033.358-.098.635l-.732 3.516c-.114.488-.289.838-.525 1.049s-.509.318-.818.318a.8.8 0 0 1-.574-.22c-.154-.146-.231-.317-.231-.513l.024-.415c.016-.13.024-.252.024-.366 0-.879-.39-1.595-1.172-2.148-1.155-.847-2.775-1.27-4.858-1.27-2.506 0-4.5.537-5.981 1.612-1.107.797-1.661 1.643-1.661 2.539 0 .878.481 1.595 1.441 2.148.7.391 2.181.712 4.443.964s3.882.542 4.859.867c1.367.44 2.384 1.074 3.051 1.904a4.36 4.36 0 0 1 1.001 2.808c0 1.204-.439 2.409-1.318 3.613s-2.222 2.198-4.028 2.979-3.841 1.172-6.104 1.172c-1.611 0-3.035-.208-4.272-.623s-2.287-1.029-3.15-1.843c-.13.667-.293 1.098-.488 1.294-.277.244-.578.366-.903.366a.8.8 0 0 1-.574-.22.71.71 0 0 1-.232-.537c0-.146.024-.35.073-.61l.904-4.224c.097-.488.268-.838.512-1.05a1.23 1.23 0 0 1 .83-.317c.228 0 .42.077.574.232a.75.75 0 0 1 .232.549c0 .13-.024.318-.073.562s-.073.423-.073.537c0 .928.48 1.741 1.44 2.441 1.27.928 3.125 1.392 5.566 1.392 2.914 0 5.135-.578 6.665-1.734s2.295-2.303 2.295-3.442c0-.618-.223-1.225-.671-1.819s-1.127-1.066-2.039-1.416-2.404-.635-4.48-.854-3.588-.497-4.541-.83-1.696-.843-2.233-1.526a3.69 3.69 0 0 1-.806-2.344c0-1.025.35-2.03 1.05-3.015s1.867-1.839 3.503-2.564 3.471-1.086 5.505-1.086c1.416 0 2.666.171 3.748.513s1.998.862 2.747 1.562zm18.798-10.84l-2.685 12.622c1.627-1.432 3.1-2.433 4.419-3.003a10.35 10.35 0 0 1 4.15-.854c2.116 0 3.748.537 4.895 1.611s1.721 2.442 1.721 4.102a7.07 7.07 0 0 1-.146 1.391l-2.71 12.72h2.319c.456 0 .765.069.928.208s.244.337.244.598c0 .342-.134.635-.403.879s-.671.366-1.208.366h-6.69c-.455 0-.765-.073-.927-.22s-.244-.35-.244-.61c0-.326.134-.61.402-.855s.672-.366 1.209-.366h2.319l2.661-12.573c.082-.358.122-.724.122-1.099 0-1.204-.419-2.189-1.257-2.954s-2.079-1.147-3.723-1.147c-1.367 0-2.555.256-3.565.769s-2.726 1.851-5.151 4.016l-2.759 12.988h2.32c.455 0 .765.069.927.208s.245.337.245.598c0 .342-.135.635-.403.879s-.672.366-1.209.366h-6.689c-.456 0-.765-.073-.928-.22s-.244-.35-.244-.61c0-.326.134-.61.403-.855s.671-.366 1.208-.366h2.32l5.615-26.513h-2.735c-.455 0-.765-.074-.927-.22s-.244-.35-.244-.611c0-.325.134-.614.402-.866s.672-.379 1.209-.379h4.809zm29.956 31.446c-2.685 0-4.89-.851-6.616-2.552s-2.588-3.861-2.588-6.482c0-2.132.651-4.3 1.954-6.506s3.088-3.947 5.358-5.224 4.57-1.917 6.897-1.917c2.67 0 4.867.846 6.592 2.539s2.588 3.801 2.588 6.323c0 2.214-.631 4.411-1.892 6.592s-3.036 3.931-5.322 5.249-4.61 1.978-6.971 1.978zm.464-2.051c1.921 0 3.821-.541 5.701-1.624s3.337-2.518 4.37-4.309 1.55-3.589 1.55-5.395c0-2.051-.708-3.768-2.124-5.152s-3.222-2.075-5.42-2.075c-1.578 0-3.047.314-4.406.94a13.51 13.51 0 0 0-3.614 2.417c-1.049.985-1.916 2.165-2.6 3.54s-1.025 2.796-1.025 4.26c0 2.133.708 3.899 2.124 5.298s3.231 2.1 5.444 2.1zm36.89 1.245l-2.563.024-1.709-13.183-7.276 13.183-2.539-.024-.195-19.067h-1.001c-.456 0-.765-.074-.928-.22s-.244-.35-.244-.61c0-.326.134-.615.403-.867s.671-.379 1.208-.379h5.64c.456 0 .757.066.903.196.179.162.269.374.269.634 0 .326-.135.615-.403.867s-.671.379-1.209.379h-2.612l.195 16.259 7.105-12.988h2.441l1.734 12.988 6.958-16.259h-2.588c-.456 0-.769-.074-.94-.22a.76.76 0 0 1-.256-.61c0-.326.138-.615.415-.867s.683-.379 1.22-.379h5.616c.455 0 .756.066.903.196.179.162.268.374.268.634 0 .326-.134.615-.402.867s-.672.379-1.209.379h-.976l-8.228 19.067zM371.41 9.497h11.132c.472 0 .786.066.94.196s.232.333.232.61c0 .293-.057.533-.171.72a1.03 1.03 0 0 1-.415.403c-.211.098-.553.147-1.025.147H370.97l-2.905 13.647a5.26 5.26 0 0 0-.122 1.074c0 .782.403 1.494 1.208 2.137s1.982.964 3.528.964c1.449 0 3.023-.204 4.724-.61s3.056-.879 4.065-1.416c.375-.212.668-.318.879-.318a.74.74 0 0 1 .562.232c.146.155.219.362.219.623 0 .341-.203.659-.61.952-.993.716-2.743 1.367-5.249 1.953-1.807.423-3.483.635-5.029.635-2.035 0-3.61-.472-4.724-1.416s-1.673-2.084-1.673-3.418c0-.424.049-.887.147-1.392l2.905-13.647h-3.784c-.456 0-.765-.074-.928-.22s-.244-.35-.244-.61c0-.326.134-.615.403-.867s.671-.379 1.208-.379h3.784l1.294-6.054c.098-.489.269-.838.513-1.05a1.23 1.23 0 0 1 .83-.317c.228 0 .419.073.574.219a.71.71 0 0 1 .232.537c0 .131-.033.334-.098.611l-1.269 6.054zM400.829 0l-2.686 12.622c1.628-1.432 3.101-2.433 4.419-3.003s2.702-.854 4.15-.854c2.116 0 3.748.537 4.895 1.611s1.722 2.442 1.722 4.102c0 .439-.049.903-.147 1.391l-2.71 12.72h2.319c.456 0 .765.069.928.208s.244.337.244.598c0 .342-.134.635-.403.879s-.671.366-1.208.366h-6.689c-.456 0-.765-.073-.928-.22s-.244-.35-.244-.61c0-.326.134-.61.402-.855s.672-.366 1.209-.366h2.319l2.661-12.573c.082-.358.123-.724.123-1.099 0-1.204-.42-2.189-1.258-2.954s-2.079-1.147-3.723-1.147c-1.367 0-2.555.256-3.564.769s-2.727 1.851-5.152 4.016l-2.759 12.988h2.32c.456 0 .765.069.928.208s.244.337.244.598c0 .342-.135.635-.403.879s-.672.366-1.209.366h-6.689c-.456 0-.765-.073-.928-.22s-.244-.35-.244-.61c0-.326.134-.61.403-.855s.671-.366 1.208-.366h2.32l5.615-26.513h-2.734c-.456 0-.765-.074-.928-.22s-.244-.35-.244-.611c0-.325.134-.614.402-.866S395.482 0 396.019 0h4.81zm43.481 20.557h-20.898l-.074 1.147c0 2.23.757 4.069 2.271 5.518s3.564 2.173 6.152 2.173c1.514 0 3.158-.248 4.932-.745s3.296-1.168 4.565-2.014c.375-.244.676-.366.904-.366a.71.71 0 0 1 .537.232c.146.154.219.354.219.598 0 .293-.13.57-.39.83-.749.798-2.246 1.583-4.492 2.356a20.88 20.88 0 0 1-6.836 1.16c-2.995 0-5.4-.887-7.215-2.661s-2.722-4.029-2.722-6.763c0-1.807.391-3.512 1.172-5.115s1.811-2.987 3.088-4.15a16.62 16.62 0 0 1 4.419-2.869c1.668-.749 3.487-1.123 5.457-1.123 2.799 0 5.049.822 6.75 2.466s2.552 3.743 2.552 6.299c0 .846-.131 1.855-.391 3.027zm-1.66-2.075c.081-2.246-.586-4.085-2.002-5.518-1.432-1.416-3.353-2.124-5.762-2.124-2.344 0-4.533.692-6.567 2.075a12.05 12.05 0 0 0-4.468 5.567h18.799zM311.605 186.587l-2.564.024-1.709-13.183-7.275 13.183-2.539-.024-.195-19.067h-1.001c-.456 0-.765-.074-.928-.22s-.244-.35-.244-.61c0-.326.134-.615.402-.867s.672-.379 1.209-.379h5.64c.455 0 .756.066.903.196.179.162.269.374.269.634 0 .326-.135.615-.403.867s-.672.379-1.209.379h-2.612l.195 16.259 7.105-12.988h2.441l1.733 12.988 6.958-16.259h-2.587c-.456 0-.769-.074-.94-.22s-.257-.35-.257-.61c0-.326.139-.615.415-.867s.684-.379 1.221-.379h5.615c.456 0 .757.066.904.196.179.162.268.374.268.634 0 .326-.134.615-.403.867s-.671.379-1.208.379h-.977l-8.227 19.067zm36.181-10.083h-20.898l-.073 1.147c0 2.23.757 4.069 2.27 5.518s3.565 2.173 6.153 2.173c1.513 0 3.157-.248 4.931-.745s3.296-1.168 4.566-2.014c.374-.244.675-.366.903-.366a.71.71 0 0 1 .537.232c.147.154.22.354.22.598 0 .293-.13.57-.391.83-.749.798-2.246 1.583-4.492 2.356s-4.525 1.16-6.836 1.16c-2.995 0-5.4-.887-7.214-2.661s-2.723-4.029-2.723-6.763c0-1.807.391-3.512 1.172-5.115s1.811-2.987 3.089-4.15a16.62 16.62 0 0 1 4.419-2.869c1.669-.749 3.487-1.123 5.456-1.123 2.8 0 5.05.822 6.751 2.466s2.551 3.743 2.551 6.299c0 .846-.13 1.855-.391 3.027zm-1.66-2.075c.082-2.246-.586-4.085-2.002-5.518-1.432-1.416-3.353-2.124-5.761-2.124-2.344 0-4.533.692-6.568 2.075s-3.524 3.239-4.468 5.567h18.799zm17.188-18.482l-2.881 13.599c3.125-3.223 6.445-4.834 9.961-4.834 2.555 0 4.659.822 6.311 2.466s2.478 3.727 2.478 6.25c0 2.23-.627 4.459-1.88 6.689a14.07 14.07 0 0 1-5.212 5.31c-2.222 1.311-4.383 1.966-6.482 1.966-3.614 0-6.267-1.612-7.959-4.834l-.855 4.028h-4.809c-.456 0-.765-.073-.928-.22s-.244-.35-.244-.61c0-.326.134-.61.403-.855s.671-.366 1.208-.366h2.759l5.615-26.513h-2.734c-.456 0-.765-.074-.928-.22s-.244-.35-.244-.611c0-.325.134-.614.403-.866s.671-.379 1.208-.379h4.81zm2.685 29.395c1.286 0 2.576-.297 3.87-.891a13.3 13.3 0 0 0 3.528-2.368c1.058-.985 1.932-2.198 2.624-3.638s1.038-2.975 1.038-4.602c0-1.97-.688-3.638-2.063-5.005s-3.08-2.051-5.115-2.051c-1.644 0-3.402.541-5.273 1.624s-3.304 2.523-4.297 4.321-1.489 3.617-1.489 5.457c0 2.018.687 3.715 2.063 5.09s3.08 2.063 5.114 2.063z" fill-rule="nonzero" fill="#fff"/></svg>