<svg xmlns="http://www.w3.org/2000/svg" viewBox="0 0 500 500" xmlns:v="https://vecta.io/nano"><style><![CDATA[.B{fill:#dadada}.C{fill:#c5c5c5}.D{fill:#fdfdfd}.E{fill:#929292}.F{fill:#696969}.G{fill:#3c3c3c}.H{fill:gray}.I{fill:#999}.J{fill:#515151}]]></style><path d="M361 123h-2l-5-10a87 87 0 0 0-53-42l-12-3-7-1-6-2h-3v1l3 1c2 0 5 1 7 3q6 5 14 6c5 1 4 4 8 6q7 3 14 10l5 7q2 4 2 0v-7l1-1 2 3 1 2 1 10 1 6 5 14 1 4 4 13v1l-9-15-2-4 4 4h1l-6-11q-5-6-7-12c-2-5-5-8-9-10l-7-3q-1-1 0 0l2 4 1 2 9 15 3 5 6 7 5 6 3 4 7 16h2a1 1 61 0 1 1 1l1 2v1a1 1 0 0 1-1 0l-2-2-1 1 3 8 1 14-1 14 1 21 2 12 1 8v13l-4 14 1-14 1-8q1-6-1-13l-1 10q0 2-1 1h-2l-1 1q1 4-3 6l-2-1a2 2 0 0 0-2 0h-6c-4-3-6-7-8-11s-4-5-7-8l-11-8c-3-3-7-4-11-5q-4 0-5 2a1 1 34 0 0 0 1q4 5 5 9l1 8c-1 3-4 3-6 4h-1l3-3a1 1 0 0 0 0-1c-3-1-7-2-9 2l-4 7-3 1-7-3v-1l-3-3v-1q-5 0-7 3v1h3q1 0 0 0c-7 5-10-5-9-10l2-7q2 0 2-2c-2-2-5-4-8-2l-5 3q-3 3-6 12l-4 5-6 9-5 5a2 2-63 0 1-1 0l-3 1-1 1q-4 0-5 2l-1 1h-8l-1-1-1-1-5-12q-1-2-1 0 0 4 3 8a1 1 49 0 1 0 1v1l-2-1q-3-4-4-10v-1l-1 1 1 5 7 12c1 4 1 8 4 13l-5 3q-4-5-6-12l-3-19-1-7v-6l-2-12-3-17 1-1q0-1 0 0h1v-1l2-15v-2l2-4 3-11 2-9 1-6v-13l1-7 2-8 4-6 4-3q11-8 25-9l10 1 10 2 12 2 5 1 6 1 8 1 8-1 8-1a2 2 13 0 0 2-1l1-3 1-2v-1q-3-5-3-10-1-7-6-13l5 10-1 1h-3q-3-2-5-6l-5-2-1 1 1 2q3 6 1 13l-1 1a1 1 0 0 1-1 0l-4-6-5-4-1-1-1-1-4-3a1 1 0 0 0-2 0v1l5 4v1h-1l-4-3v1l4 4v1h-1l-1-1h-1v4l1 2h-1l-7-4c-3-1-4-4-6-6-2-3-6-4-8-6q-2-2-7-3l-1 1h1l5 2 2 2q1 1 0 0l-10-3-3-3-4-1-8-4v1c3 0 5 3 7 4l1 1v2h-2l-8-2-3-2h-3l-10 2 1-1 17-7 3-1 3-1a3 3-56 0 1 2 0l6-2 13-4h22c6 1 13-1 19 1l6 1h1l12 3c11 4 21 8 31 17l11 11q8 10 12 21l1 3v3ZM254 72l-7-1h-1v1l6 1 2-1 5 3 2 3 5 5q4 2 1-2l-4-6c-3-3-7-5-11-6l-1-1q-2-2-5-2v1h3l4 3 1 2Zm0 9 3 3 3 4h1a1 1 0 0 0 0-1l-4-5-7-4q-6-4-13-6h-5l-4-1a1 1 0 0 0-1 1h2c4 2 7 4 11 4l14 5Zm25 4-2-3q-4-6-10-10h-1q4 3 6 7l3 4 3 3a1 1 69 0 0 1-1Zm22 10v1l1-1-2-4-1 1 2 3Zm-21 65q0-2-2-2h-5c-1 0-2 1-2 3v10l-1 1v1c3 2 4 5 5 8l1 4a1 1 0 0 0 2 1l3-1 10 1v-1l-2-1v-1l4-3a1 1 0 0 1 1 1q-1 4 3 4c2 1 9 2 10-2q0-2 2-1l4 3 6 3 4 1 6-2h1q1 0 0 0l-1-2v-1c2-3-2-6-5-7h-3a1 1-21 0 0 0 1q0 2-2 3-6-4-13-6l-1-1 1-1 2-5a1 1-57 0 0 0-1v-2c6 1 11 4 16 7q3 2 2-1c-2-6-5-13-12-15l-6-2-8 1-20 5Zm-40 3q-15-1-27 3t-12 18q-3 5-4 11c0 6 0 14 8 13l6 2h2l1 1 1 1a1 1-45 0 0 1 0l2-1 5-2h1c1-2 4-2 6-3 3-2 6-2 9-5l10-9c1-1 3-3 5-2 2 0 4-3 4-5l-1-4-1-1-2-4-1-3-1-5q-2-1-2-3l-3-3-5-1a1 1 0 0 0-1 1v1h-1Zm80 31 3 1q1 0 0 0l-4-2-7 1-9-1-11-3c-3-1-6-3-9-2q-2 0 0 1l8 3 8 2 9 1 12-1Z" class="D"/><path d="M361 123q5 12 8 25l-1 6v36l1 8 5 13q-2 3 0 6l-1 13-1 7-1 6-2 6q0 2-2 3l-2 4-5 3-10 3-5 2-4 2v-1l3-6 1-1 1 1 4-14v-13l-1-8-2-12-1-21 1-14-1-14 4-2v-1l-1-3v-1h-1l1-3v-5l-2-6q0-2 1-1l2 2v-1l-2-4c-2-2-1-6 3-7l3-1-3-1q-1 0 0 0v-1q0-3-1-1l-1 2v1l-2 1a1 1 71 0 1-1-1v-3l1-7-1-2q-3-4-3-9l-2-6q-2-1-2-3l-6-5q3 3 2 8-2 4-1 9l1 5 3 9h-1l-5-14-1-6-1-10-1-2-2-3-1 1v7q0 4-2 0l-5-7q-7-7-14-10c-4-2-3-5-8-6q-8-1-14-6c-2-2-5-3-7-3l-3-1v-1h3l6 2 7 1 12 3c22 6 42 21 53 42l5 10h2Zm2 55h1v-20l-1 1v19Z" class="G"/><path d="m254 72-1-2-4-3h-3v-1q3 0 5 2l1 1c4 1 8 3 11 6l4 6q3 4-1 2l-5-5-2-3-5-3Z" class="B"/><path d="m254 81-14-5c-4 0-7-2-11-4h-2a1 1 0 0 1 1-1l4 1h5q7 2 13 6l7 4 4 5a1 1 0 0 1 0 1h-1l-3-4-3-3Z" class="E"/><path d="m254 72-2 1-6-1v-1h1l7 1Z" class="B"/><path d="M279 85a1 1 69 0 1-1 1l-3-3-3-4q-2-4-6-7h1q6 4 10 10l2 3Z" class="C"/><path d="m234 81 4 4 1 1c0 3 2 4 4 5a1 1-69 0 1 0 1q0 4 2 7h-1v1l-2-6-1-1-2-1h-1v-2h-1l-4-3c-1-2-3-4-6-4h-1q-1-1-3 1l-11-6h-1v-1h3l3 2 8 2h2v-2l-1-1c-2-1-4-4-7-4v-1l8 4 4 1 3 3Z" class="E"/><path d="M211 77v1l-4 2q-3 0-5 2a1 1 0 0 0 0 1l2 1-5 5-3 1v1h1a1 1-19 0 1-1 1l-2 2a1 1-13 0 0 0 1l-1 1-3 3c0 2-3 4-4 6-2 3-4 6-4 9l-3 9-2 6-1 7-1 2-2 1q3-13 8-25l-1-1-1 1q-9 13-13 29v6l1 16v9l-1 1-4 1v1h1l3-1 2 1h6l3 4 2 4 2 13 3 17 2 12v6l1 7 3 19q2 7 6 12l2 3-1 1q-3 0-5 3l-2 3 1 1-1 1-2-3q0-1 0 0l1 5a1 1-16 0 1 0 1h-1l-7-8c-3-1-4-4-5-7l-3-8c-1-5-4-10-7-14l-1-3-1-3q1-4-1-8h-3l-2-4 1-1q3-3 7-4a1 1-16 0 0 1-1l-8-32-1-7-1-5v-3l-1-5-1-13v-7l1-5 5-16 4-10 8-14 4-6 11-11 2-3c1-2 4-4 6-4h3a1 1 0 0 0 1-1h-2v-1l3-3 10-2Zm-41 133c-2-10-3-19-6-28q0-3-2-1l-1 1q-2 1-1 4l1 7 7 32 1 2a1 1 0 0 0 2 0c3-5 2-8 0-13l-1-4Z" class="G"/><path d="M211 78h1l11 6 7 9-8-7-1-1-1 1 3 3h-1q-3 0-4-2l-1-1-7-2h-2q-4 1-3 4v1q-4 0-5 2-4 6-4 12-4 3-7 8-3 4-4 14v-11l7-11v-1c-2 2-4 3-5 6l-2 4c-2 3-2 6-2 9 0 2-2 3-3 4l-1 7-1 3v4q-2 3-2-1v-2l1-7 2-6 3-9c0-3 2-6 4-9 1-2 4-4 4-6l3-3 1-1a1 1-13 0 1 0-1l2-2a1 1-19 0 0 1-1h-1v-1l3-1 5-5q3-2 3-4l4-2Z" class="D"/><path d="m201 79-3 3v1h2a1 1 0 0 1-1 1h-3c-2 0-5 2-6 4l-2 3-11 11-4 6-8 14-4 10-5 16-1 5v7l1 13 1 5v3l1 5 1 7 8 32a1 1-16 0 1-1 1q-4 1-7 4l-2-11h-1l-2-4v-28q-1-2-3-2v-14l1-6 1-6v-14l3-12 2-8 5-11 11-15 8-8 9-7 10-5Zm64 17q4-1 10 1h1v-1a1 1 41 0 1 1 0l3 4 3 3 1 2v2l-1 1-5-2h-6l-7-1-6-1c-2 1-5 1-8-1h-4q-6-3-14-4h-7l-12 1q1-1-2-3l-3-7h2l6 3v-1l-1-1a3 3 0 0 1-1-1l-3-5a2 2 52 0 0-2 0l-2 1v-2h2l7 2 1 1q1 2 4 2h1l-3-3 1-1 1 1 8 7-7-9q2-2 3-1h1c3 0 5 2 6 4l4 3h1v2h1l2 1 1 1 2 6v-1h1q-2-3-2-7a1 1-69 0 0 0-1c-2-1-4-2-4-5l-1-1-4-4 10 3q1 1 0 0l-2-2-5-2h-1l1-1q5 1 7 3c2 2 6 3 8 6 2 2 3 5 6 6l7 4h1l-1-2Zm-7 7v-1l-1-1-1 1 2 1Z" class="F"/><path d="m300 103-4 1h-1l-5 1q-2 1-3-1l-1-1-2 2-1-2-3-3-3-4a1 1 41 0 0-1 0v1h-1q-6-2-10-1v-4h1l1 1h1v-1l-4-4v-1l4 3h1v-1l-5-4v-1a1 1 0 0 1 2 0l4 3 1 1 1 1 5 4 4 6a1 1 0 0 0 1 0l1-1q2-7-1-13 3 1 3 5l1 8v1a1 1 88 0 0 1-1v-4h1a2 2 0 0 1 1 1v4a1 1 12 0 0 0 1q2 0 3 2t1-1v-1h-1l-2-9 1-1v1l1 4q1 3 2 0 2-2 2-6l-5-10q5 6 6 13 0 5 3 10v1Z" class="E"/><path d="M207 80q0 2-3 4l-2-1a1 1 0 0 1 0-1q2-2 5-2Z" class="C"/><path d="M296 89q0 4-2 6-1 3-2 0l-1-4v-1l-1 1 2 9h1v1q0 3-1 1t-3-2a1 1 12 0 1 0-1v-4a2 2 0 0 0-1-1h-1v4a1 1 88 0 1-1 1v-1l-1-8q0-4-3-5l-1-2 1-1 5 2q2 4 5 6h3l1-1Z" class="B"/><path d="M208 84v2h-2v1l3 3 3 7q3 2 2 3h-2v1a1 1 81 0 1 0 2l-4 1-6 5q-8 7-12 18l-2 14-3 13-1 5h-1l1-10v-3q3-5 2-11l-1-4q-2-3 0-6 1-10 4-14v9l1 1v-2l2-9 1-1q3-3 3-6 0-6 4-12 1-2 5-2l-2 2a3 3 0 0 0-2 3l3 7 1 1 1-1-3-8q-1-2 1-1l2 2 1-1a1 1-43 0 0 0-1l-2-4q-1-3 3-4Z" class="J"/><path d="m209 90-3-3v-1h2l2-1a2 2 52 0 1 2 0l3 5a3 3 0 0 0 1 1l1 1v1l-6-3h-2Z" class="B"/><path d="m205 88 2 4a1 1-43 0 1 0 1l-1 1-2-2q-2-1-1 1l3 8-1 1-1-1-3-7a3 3 0 0 1 2-3l2-2v-1Z" class="I"/><path d="m301 95-2-3 1-1 2 4-1 1v-1Z" class="B"/><path d="m331 125-1-4q0-3-3-5h-1l-4-5-3-3-4-6v-2l-4-3h-2l-2-4q-1-1 0 0l7 3c4 2 7 5 9 10q2 6 7 12l6 11h-1l-4-4Z" class="H"/><path d="m349 148-2 3a1 1 0 0 1-2-1l-3-11-3-8-1-5-3-9-1-5q-1-5 1-9 1-5-2-8l6 5q0 2 2 3l2 6q0 5 3 9l1 2-1 7v3a1 1 71 0 0 1 1l2-1v-1l1-2q1-2 1 1v1q-1 0 0 0l3 1-3 1c-4 1-5 5-3 7l2 4v1l-2-2q-1-1-1 1l2 6Z" class="C"/><path d="M309 97h1l5 5 4 6 3 3 4 5q1 4 4 5l1 4 2 4 9 15v-1l-4-13-1-4h1l1 5 3 8 3 11a1 1 0 0 0 2 1l2-3v5l-1 3-1-1-1-2a1 1 61 0 0-1-1h-2l-7-16-3-4-5-6-6-7-3-5-9-15-1-2Z" class="J"/><path d="m315 102-5-5h1l4 3v2Z" class="D"/><path d="m284 105 2-2 1 1q1 2 3 1l5-1h1l4-1-1 2-1 3a2 2 13 0 1-2 1l-8 1-8 1-8-1-6-1-5-1-12-2-10-2-10-1q-14 1-25 9l-4 3-4 6-2 8-1 7v13l-1 6-2 9-3 11-2 4v2l-2 15v1h-1q0-1 0 0l-1 1-2-13 2-2v-1l2-12v-5l1-6 1-5 3-13 2-14q4-11 12-18l6-5 4-1a1 1 81 0 0 0-2v-1h2l12-1h7q8 1 14 4h4c3 2 6 2 8 1l6 1 7 1h6l5 2 1-1v-2Z" class="B"/><path d="m258 103-2-1 1-1 1 1v1Z" class="C"/><path d="M185 125q-2 3 0 6l1 4q1 6-2 11v3l-3 1q0 1 0 0-1 0 0 0l2-3a1 1-25 0 0 0-1l-1-1h-1c-1 1-4 2-4 5l-1 5 1 7v2l1 4 1 4v5l1 1a1 1 0 0 0 0-1l3-18h1l-1 6v5l-2 12v1l-2 2-2-4-3-4-2-2a2 2-72 0 1 0-1q-2-7-1-15l1-8q-1-7 1-12l2-1 1-2v2q0 4 2 1v-4l1-3 1-7c1-1 3-2 3-4 0-3 0-6 2-9l2-4c1-3 3-4 5-6v1l-7 11v11Z" class="E"/><path d="M196 103q0 3-3 6l-1 1-2 9v2l-1-1v-9q3-5 7-8Z" class="B"/><path d="M173 139q-2 5-1 12l-1 8q-1 8 1 15a2 2-72 0 0 0 1l2 2h-6l-2-1v-1l1-1v-9l-1-16v-6q4-16 13-29l1-1 1 1q-5 12-8 25Z" class="D"/><path d="M330 121q-3-1-4-5h1q3 2 3 5Z" class="B"/><path d="m184 149-1 10-3 18a1 1 0 0 1 0 1l-1-1v-5l-1-4-1-4v-2l-1-7 1-5c0-3 3-4 4-5h1l1 1a1 1-25 0 1 0 1l-2 3q-1 0 0 0 0 1 0 0l3-1Z" class="D"/><path d="m347 155 1 1h1v1l1 3v1l-4 2-3-8 1-1 2 2a1 1 0 0 0 1 0v-1Z" class="F"/><path fill="#222" d="M308 165h-11l-4 1h-4l-13 1v-1h-1q0-4 5-6l20-5 8-1 6 2c7 2 10 9 12 15q1 3-2 1c-5-3-10-6-16-7Z"/><path d="M280 160q-5 2-5 6l-1 1 2 8-1 6c-1-3-2-6-5-8v-1l1-1v-10c0-2 1-3 2-3h5q2 0 2 2Z" class="B"/><path d="M363 178v-19l1-1v20h-1Z" class="D"/><path d="M201 184v3q0 1 0 0l5-5q8-7 19-8 4 3 12 4 2 0 2 2c-10-1-20 3-27 10l-1 2h1q10-11 25-11l4 1c3 0 4 2 7 3l2 1a2 2-70 0 0 2-1v-5l-4-9q-3-7-8-8h1v-1a1 1 0 0 1 1-1l5 1 3 3q0 2 2 3l1 5 1 3 2 4 1 1 1 4c0 2-2 5-4 5-2-1-4 1-5 2l-10 9c-3 3-6 3-9 5-2 1-5 1-6 3h-1l-5 2-2 1a1 1-45 0 1-1 0l-1-1-1-1h-2l-6-2c-8 1-8-7-8-13q1-6 4-11Zm35 7h3q4-3 9-3v-1h-1l-9-2q-8-2-15 1-8 4-14 12v1h1q3-4 7-6h1l4 1 4-1h5l5-2Zm2 5c-5 3-10 5-16 6l-4 2q-2 1 1 1l9-2 9-4 2-3q1 0 0 0h-1Z" class="B"/><path fill="#222" d="M240 163q5 1 8 8-12 0-23 3-11 1-19 8l-5 5q0 1 0 0v-3q0-14 12-18t27-3Z"/><path d="M305 165q-6 3-8 6l-1 1-5 3q-7 1-12 6a2 2-31 0 0 0 2 1 1 0 0 0 1 0q5-6 13-7 10-2 18 2l9 5v-1l-1-1q2-1 2-3a1 1-21 0 1 0-1h3c3 1 7 4 5 7v1l1 2q1 0 0 0h-5c-5 2-6-3-10-4q-7-4-11-4l-7-1-5 2-10 4-1 1-3 1a1 1 0 0 1-2-1l-1-4 1-6-2-8 1-1h1v1l13-1h4l4-1h8Z" class="C"/><path d="M305 165h3v2a1 1-57 0 1 0 1l-2 5-1 1 1 1-5-1h-4l-6 1 5-3 1-1q2-3 8-6Z" class="B"/><path d="M368 166v10-10Z" class="E"/><path d="m248 171 4 9v5a2 2-70 0 1-2 1l-2-1v-1q-4-3-9-4 0-2-2-2-8-1-12-4 11-3 23-3Z" class="C"/><path d="M306 175q7 2 13 6l1 1v1l-9-5q-8-4-18-2-8 1-13 7a1 1 0 0 1-1 0 2 2-31 0 1 0-2q5-5 12-6l6-1h4l5 1Z" class="G"/><path d="M166 175v1l-3 1h-1v-1l4-1Z" class="J"/><path fill="#222" d="M329 187l-6 2-4-1-6-3-4-3q-2-1-2 1c-1 4-8 3-10 2q-4 0-3-4a1 1 0 0 0-1-1l-4 3v1l2 1v1l-10-1 1-1 10-4 5-2 7 1q4 0 11 4c4 1 5 6 10 4h4zm-32-4a2 1 71 0 0 1-2 2 1 71 0 0-2-1 2 1 71 0 0 0 2 2 1 71 0 0 1 1zm6-1a1 1 43 0 0 0-1 1 1 43 1 0-1 1 1 1 43 0 0 1 0z"/><path d="M239 180q5 1 9 4v1c-3-1-4-3-7-3l-4-1q-15 0-25 11h-1l1-2c7-7 17-11 27-10Z" class="G"/><ellipse rx="1.6" ry="1.1" transform="rotate(71 20 300)" class="D"/><path d="M164 182c3 9 4 18 6 28l1 4c2 5 3 8 0 13a1 1 0 0 1-2 0l-1-2-7-32-1-7q-1-3 1-4l1-1q2-2 2 1Z" class="F"/><ellipse rx="1.1" ry=".8" transform="rotate(43 -81 476)" class="B"/><path d="m238 185 1 1h-3v5l-5 2h-5l-4 1-4-1h-1q-4 2-7 6h-1v-1q6-8 14-12 7-3 15-1Zm-6 3a1 1 0 0 0 0-1l-2-1a1 1-15 0 0 0 1l2 1Zm-4 0a1 1-29 0 0-2 0 1 1-29 0 0 0 1 1 1-29 0 0 1 0 1 1-29 0 0 1-1Zm-9 3a1 1 0 0 0 0 1l5 1a1 1 0 0 0 0-1l-2-2a1 1 0 0 0-1 0l-2 1Z" class="G"/><path d="M151 185q2 0 3 2v28l2 4h1l2 11-1 1q-4-8-5-16l-1-7q-3-9-2-17l1-6Z" class="E"/><path fill="#222" d="m238 185 9 2h1v1q-5 0-9 3 0-2 2-2a1 1 0 0 0 0-1l-2-2-1-1Z"/><path d="m239 186 2 2a1 1 0 0 1 0 1q-2 0-2 2h-3v-5h3Z" class="D"/><g class="B"><path d="m232 188-2-1a1 1-15 0 1 0-1l2 1a1 1 0 0 1 0 1Z"/><ellipse rx="1.4" ry=".9" transform="rotate(331 473 -338)"/></g><path d="m320 194-12 1-9-1-8-2-8-3q-2-1 0-1c3-1 6 1 9 2l11 3 9 1 7-1 4 2q1 0 0 0l-3-1Z" class="H"/><path d="m219 191 2-1a1 1 0 0 1 1 0l2 2a1 1 0 0 1 0 1l-5-1a1 1 0 0 1 0-1Z" class="D"/><path d="M222 202c6-1 11-3 16-6h1q1 0 0 0l-2 3-9 4-9 2q-3 0-1-1l4-2Z" class="C"/><path d="M339 242c0 4-3 5-3 8l-2 8h-1q0-3-2-5h-2q0 4-3 4-1 0 0 0l1 2v1c-5-4-4-9-7-14-5-7-11-11-17-15l-4-6-4-4-2-3q-2-4-6-7 1-2 5-2c4 1 8 2 11 5l11 8c3 3 5 4 7 8s4 8 8 11h6a2 2 0 0 1 2 0l2 1Z" class="B"/><path d="M287 211q4 3 6 7l2 3 4 4 4 6c6 4 12 8 17 15q-3 0-2 2l1 11 1 5 1 6 3 5-1 1-2 1-1-1h-3l-1 1-1-7v-2l-1-5-1-10-1-1-4-4q-4-2-10-1-4 1-8-1h-1q-4 2-9 2h-3l-4 1-14 1-5 1c-4 0-9 3-12 6l-3 4 1 1 7-2h8l14-1 10-1 10-1 10-3h3l4-1 5 1q2 1 0 1h-10l-5 1q-3 2-7 2l-10 1-11 1-8 1h-9l-8 2q-4 1-5 4-2 8 1 16h-4q-3 1-4-1l-1-5v-1l1-2-3-11 1-5c2-6 5-11 9-17 4-5 5-11 10-16l1-1 3-6-2 7c-1 5 2 15 9 10q1 0 0 0h-3v-1q2-3 7-3v1l3 3v1l7 3 3-1 4-7c2-4 6-3 9-2a1 1 0 0 1 0 1l-3 3h1c2-1 5-1 6-4l-1-8q-1-4-5-9a1 1 34 0 1 0-1Zm7 11v9l4 1a1 1 90 0 0 2-2l-5-8h-1Zm-46 17v1l1-1 3-2v-1q-3-4-3-8 0-2-1 0-4 5-6 11-1 2 1 1l4-1a1 1-23 0 1 1 0Z" class="G"/><path d="M374 211v6q-2-3 0-6Z" class="H"/><path d="m252 218-3 6-1 1c-5 5-6 11-10 16-4 6-7 11-9 17l-1 5 3 11-1 2v1l-3 2q-3-1-4-5h-1l-3-2-3-3q-7-4-4-12c0-2 0-3-2-3h-1l2 1v3a1 1 0 0 1-2 0l-2-2q0-2-2-3h4l1-1q1-2 5-2l1-1 3-1a2 2-63 0 0 1 0l5-5 6-9 4-5q3-9 6-12l5-3c3-2 6 0 8 2q0 2-2 2Z" class="B"/><path d="M294 231v-9h1l5 8a1 1 90 0 1-2 2l-4-1Z" class="C"/><path d="m346 259-1-1-1 1-3 6v-1 1l-2 3-2 5-2 7-3 13-6 11-2 3-2 3-1 2-3 3h-2l-5 4-16 6h-20l-15-1h-5a1 1 0 0 0-1 0q-5 3-2 7l-5 2 1-13-2-6-1-1v-3l-1-1v-4c-3-4-6-10-10-13l-7-3-2-2 3-4v-1l-1-3 3-2 1 5q1 2 4 1h8l1 1h-1l-1 1 1 1q2 0 3 2a1 1 82 0 0 1 0h1q2 1-1 2v1l1 1-1 5-1 1 1 8v1q-1 2 1 5h1v-4l2 1a1 1 0 0 1 0 1l1 2c2 3 4 6 8 7q2 0 0-1l-4-3a2 2 3 0 1-1-1v-4l-1-4-1-4-4-6v-1h1l1 2h1q2 0 2-2l6 4a1 1 0 0 0 1-2l-1-1 1-1h3a1 1-52 0 1 0-1l4 2q2 0 0-1l-1-2a1 1-62 0 1 1 0h2l1-4 6-2h9a3 2-22 0 1 0 1h3c2 0 4 2 6 1q1 0 0 0l-3-3v-1q3 1 5 4h1q5 2 9 6a2 2 6 0 1 1 0l3 3v-1l-5-5-4-3-7-4a1 1 0 0 1 0-2q2-1 1-3a1 1 60 0 1 0-2h1l1 2 1 1 1-2 2-5c1-1 3-1 4 1l2 1q6 1 9 7l1-1-2-5 1-1h3l1 1 2-1 1-1-3-5-1-6-1-5-1-11q-1-2 2-2c3 5 2 10 7 14v-1l-1-2q-1 0 0 0 3 0 3-4h2q2 2 2 5h1l2-8c0-3 3-4 3-8q4-2 3-6l1-1h2q1 1 1-1l1-10q2 7 1 13l-1 8-1 14Zm-37 25-1-2-1-4h-1l1 5v2h1l1-1Zm-8 2 5 4 1 1h1v-1l-1-1-5-4a1 1 0 0 0-1 0v1q-1 0 0 0Z" class="J"/><path d="m247 239-4 1q-2 1-1-1 2-6 6-11 1-2 1 0 0 4 3 8v1l-3 2-1 1v-1a1 1-23 0 0-1 0Zm126-9v6l-1 7-2 7-5 6 2-4q2-1 2-3l2-6 1-6 1-7Z" class="C"/><path d="m164 243-4-8h3q2 4 1 8Z" class="F"/><path d="M199 251q-1 3 2 6c2 3 5 6 5 9q0 2-1 0-2-6-8-11l-7-12-1-5 1-1v1q1 6 4 10l2 1v-1a1 1 49 0 0 0-1q-3-4-3-8 0-2 1 0l5 12Zm115 12q-2-1-2-3v-3l-4-1c-3 1-8 0-10 2q-4 4-10 6c-10 2-20 3-30 1l-3-1h-3c1 2 4 2 6 2q12 2 25 0 10-1 19-7c1-1 4-2 4 1 1 3 1 6-1 8l-2 4a1 1 6 0 1-1 1h-1a1 1 0 0 0-1 1 1 1-48 0 1 0 1l-1 1h-1l-1-1-2-4 1-1-1-1-4 1-8 1-13 1-9 1h-4q-1 0 0 0l4 5q3 0 4 2l1 1 2-1h1l4 1q-2 2-1 5a1 1 0 0 1-1 1h-10q-4-2-9 0l-4 1h-1a1 1 82 0 1-1 0q-1-2-3-2l-1-1 1-1h1l-1-1h-4q-3-8-1-16 1-3 5-4l8-2h9l8-1 11-1 10-1q4 0 7-2l5-1h10q2 0 0-1l-5-1q-2-4-6-2h-16l-15 2-8 2-14 5-7 2-1-1 3-4c3-3 8-6 12-6l5-1 14-1 4-1h3q5 0 9-2h1q4 2 8 1 6-1 10 1l4 4 1 1 1 10Z" class="B"/><path d="m306 253-4 1h-3l-10 3-10 1-10 1-14 1h-8l14-5 8-2 15-2h16q4-2 6 2Z" class="E"/><path d="m199 251 1 1 1 1h4q2 1 2 3h-4l-2 1q-3-3-2-6Z" class="H"/><path d="m227 279 1 3v1l-3 4-4-1 3-1v-1h-1l-2-1v-1l-1-1-4-3a2 2-16 0 0-1-1c-4 0-5-4-7-7h-7l-1-1h1l1-1h-1q0-1 0 0c-3-5-3-9-4-13q6 5 8 11 1 2 1 0c0-3-3-6-5-9l2-1h4l2 2a1 1 0 0 0 2 0v-3l-2-1h1c2 0 2 1 2 3q-3 8 4 12l3 3 3 2h1q1 4 4 5Z" class="F"/><path d="m314 263 1 5v2l1 7 2 5-1 1q-3-6-9-7l-2-1c-1-2-3-2-4-1l-2 5-1 2-1-1-1-2h-1a1 1 60 0 0 0 2q1 2-1 3a1 1 0 0 0 0 2l7 4 4 3 5 5v1l-3-3a2 2 6 0 0-1 0q-4-4-9-6h-1q-2-3-5-4v1l3 3q1 0 0 0c-2 1-4-1-6-1h-3a3 2-22 0 0 0-1h-9l-6 2-4 2-4 1c-3 0-9 1-10-2a1 1 0 0 0-1-1l-1 1v1q2 1 1 3l-4-2-1-1v-1q3-1 1-2l4-1q5-2 9 0h10a1 1 0 0 0 1-1q-1-3 1-5h9l1-1 1-1 1 1h1l1-1h1l1 1h1q1 0 0 0v-2l5-7 2 4 1 1h1l1-1a1 1-48 0 0 0-1 1 1 0 0 1 1-1h1a1 1 6 0 0 1-1l2-4c2-2 2-5 1-8 0-3-3-2-4-1q-9 6-19 7-13 2-25 0c-2 0-5 0-6-2h3l3 1c10 2 20 1 30-1q6-2 10-6c2-2 7-1 10-2l4 1v3q0 2 2 3Zm0 13-1-2-6-1v1l4 1 2 1 1 1q1 0 0 0v-1Z" class="C"/><path d="M341 265v1l-2 2 2-3v-1 1Z" class="B"/><path d="M201 268q0-1 0 0h1l-1 1h-1l1 1h7c2 3 3 7 7 7a2 2-16 0 1 1 1l4 3 1 1v1l2 1h1v1l-3 1-6-1h-1l-9 2-1-1 1-1v-1l-6-9-1-1-2-3 5-3Z" class="C"/><path d="m295 271-5 7v2q1 0 0 0h-1l-1-1h-1l-1 1h-1l-1-1-1 1-1 1h-9l-4-1h-1l-2 1-1-1q-1-2-4-2l-4-5q-1 0 0 0h4l9-1 13-1 8-1 4-1 1 1-1 1Z" class="G"/><path d="M314 276v1q1 0 0 0l-1-1-2-1-4-1v-1l6 1 1 2Z" class="F"/><path d="m337 273-1 9c0 5-3 9-2 14l-1 5v9l1 9 1 2q3 4 6 5c7 4 13 9 19 11l11 5-6-2-6-2-6-3-5-3q-2 0-3-2a2 2 0 0 0-3 1l-1 3v1h-1v-7q1-2-1 0v1a1 1 0 0 1-1 1l-1-1h-3q-2 1-1 4l1 4v8l-1 6-1 5v1q-1 7-4 13v1l-3 2-7 7-5 5-9 5q-1-1 1-3l1-1-4 2c-2 2-5 2-8 3a1 1 0 0 1-1-1c0-3 0-7-2-10-3-4-4-9-5-14a1 1 0 0 1 0-1c6-3 13-6 18-10l12-9 6-7 5-8q3-5 3-8l1-11c0-2 0-3-2-4l-3-4 6-11 3-13 2-7Z" class="B"/><path d="m198 274 1 1 6 9v1l-1 1-1-1q-2-6-6-10l1-1Z" class="F"/><path d="M197 275q4 4 6 10l1 1 1 1h-4q0-2-2-3v-1l-1-5a2 2 0 0 0-3-1l-3 1q2-3 5-3Z" class="B"/><path fill="#222" d="m205 287 9-2h1l6 1 4 1 2 2q12 10 17 23l1 1-1 5-1 3-2 1-3-3v-1l-3-3-3-4q-1-1 0 0l3 3h2q0-1 0 0v2l2 2h1l-1-5-2-5-5-9-3-3q-7-5-15-6l-8-1q-2 0 0 1c5 1 15 4 17 9l4 8 4 9h-1q-3-9-8-17l-3-3-4-2h-1l1 1 4 5c5 4 7 10 10 16l-2 8h-4v-9l-1-3-4-7q-7-10-18-12l-6-1h-6l-1-1 1-1v-4h1a1 1-16 0 0 0-1l-1-5q0-1 0 0l2 3 4 5 4 1q3-1 0-1-4-2-7-6l-1-1 2-3 3-1a2 2 0 0 1 3 1l1 5v1q2 1 2 3h4Z"/><path d="m309 284-1 1h-1v-2l-1-5h1l1 4 1 2Z" class="H"/><path d="M191 282q3 4 7 6 3 0 0 1l-4-1-4-5 1-1Z" class="F"/><path d="M301 286q-1 0 0 0v-1a1 1 0 0 1 1 0l5 4 1 1v1h-1l-1-1-5-4Z" class="B"/><path d="m241 322-4 1c-2 0-4-2-5-4v-1q4 1 4 3v1h2l1-1h-2l-1-2a1 1 18 0 0-1-1l-4-2-4-9-4-8c-2-5-12-8-17-9q-2-1 0-1l8 1q8 1 15 6l3 3 5 9 2 5 1 5h-1l-2-2v-2q0-1 0 0h-2l-3-3q-1-1 0 0l3 4 3 3v1l3 3Zm4-9-1-1q-5-13-17-23l7 3c4 3 7 9 10 13v4l1 1v3Z" class="D"/><path d="m271 289-1 4h-2a1 1-62 0 0-1 0l1 2q2 1 0 1l-4-2a1 1-52 0 0 0 1h-3l-1 1 1 1a1 1 0 0 1-1 2l-6-4-2-1q1-2-1-3v-1l1-1a1 1 0 0 1 1 1c1 3 7 2 10 2l4-1 4-2Zm-84 2 1 1h-1q-6 1-11-1h11Z" class="H"/><path d="M176 291q5 2 11 1l7 3 1 1 4 3c6 7 12 14 13 24l-1 2-1 2q-1 1-2-1l1-1-1-1-1-5c-4-10-12-22-24-24h-9q-3 0-4-2l6-2Z" class="G"/><path d="M188 292h6l6 1q11 2 18 12l4 7 1 3v9q0 6-6 1a2 2-77 0 1-1-2c-1-4-2-8-5-12l-2-4-2-4v1l5 11q2 4 1 8h-1c-1-10-7-17-13-24h2v-1l-4-3h-1l-1 1-1-1-7-3h1Z" class="D"/><path d="M170 293q1 2 4 2l2 1v1l8 8c2 2 4 5 4 8a2 2 0 0 1-1 2l-12-1-9 1-5-1q-9-13-23-16-5-1-6-3l19-3q9-1 19 1Z" class="C"/><path d="m248 292 4 2 2 1q0 2-2 2h-1l-1-2h-1v1l4 6 1 4 1 4v4a2 2 3 0 0 1 1l4 3q2 1 0 1c-4-1-6-4-8-7l-1-2a1 1 0 0 0 0-1l-2-1v4h-1q-2-3-1-5v-1l-1-8 1-1 1-5Z" class="F"/><path d="M230 316h-1q0 1 0 0c-3-6-5-12-10-16l-4-5-1-1h1l4 2 3 3q5 8 8 17Zm-22 10c-3 0-6 0-9-2l-2-6v-1a1 1-60 0 0 0-1c-3-2-4-5-6-8l-4-4c-4-3-5-6-11-8l-2-1h9c12 2 20 14 24 24l1 5 1 1-1 1Z" class="D"/><path d="M132 295q1 2 6 3-8 1-14 4l-6 3-5 5-5 7-4 7q0 5-2 9a1 1 11 0 0 0 1l3-1 7 6q3 2 3 5h-1q-6 1-11 5l-2-1c-2-4-5-8-9-9v1l-1 1 6 7-3 1-1 1h-2v2h-1q-2-2-4 0l-1 1-4 2-1-2c-1-3-3-5-6-4a1 1 0 0 0-1 2l2 3q-5-2-9 1v1h2l1 1c3 2-1 5-3 7l-9 5-2 1-1-4q3-4 8-7c3-2 3-7 6-9l17-10 6-2 2-2c3-1 6-5 7-7l4-10q1-4 4-7l4-7q8-8 20-10Z" class="F"/><path d="m199 299-4-3 1-1h1l4 3v1h-2Z" class="C"/><path d="M176 296c6 2 7 5 11 8l4 4c2 3 3 6 6 8a1 1-60 0 1 0 1v1l2 6q-3 1-3 3l-5 3-3 1a1 1 57 0 1-1 0v-1l3-1 1-1-1-1-21 5h-1l-2-5-5-13 5 1 9-1 12 1a2 2 0 0 0 1-2c0-3-2-6-4-8l-8-8v-1Z" class="E"/><path d="M138 298q14 3 23 16l5 13-5 1-2 4a2 1 32 0 0 0 1l2 6-1 7c1 2 0 3-1 5l-1 1a1 1-76 0 1-1-1q2-7 1-13l-4-9a1 1-20 0 0-1 1q2 5 2 11v6l-1 5c0 4-4 10-8 11l-3 2v1l-4 2-10 1-4-2-5-3c-3-2-6-5-4-8l1-1v-6l-1-1h-1l-4 2-8-1q5-4 11-5h1q0-3-3-5l-7-6-3 1a1 1 11 0 1 0-1q2-4 2-9l4-7 5-7 5-5 6-3q6-3 14-4Z" class="J"/><path d="M223 324h4l2-8q0 1 0 0h2l4 2a1 1 18 0 1 1 1l1 2h2l-1 1h-2v-1q0-2-4-3v1c1 2 3 4 5 4l4-1 2-1 1-3 1-5 1 1 2 6-1 13c-5 11-11 19-23 22a1 1 0 0 0 0 2l9 22 8 14 12 21 3 4 13 19 6 8 12 21q-3-2-4-5l-3-4-7-12-6-8-11-16-3-5-3-4-15-26-12-26q-1-2-2-1c-2 3-5 5-8 5h-10l-1 1v2l2 8v25q1 13 5 30l1 7 3 16-1 1-4-20v-4l-1-3-2-6v-5q0-8-4-15v-7l1-7v-8l-1-1v1l-1 5v5q0 7-5 12l-1 1h-2l-28 7a2 2 82 0 0-1 2l-1 5-1 11v4l-1 4-1 7h-1l-5 2-4 3h-1l-1 4a1 1-4 0 0 1 1h6l-1-1h-1v-1h5l1-1-1-1-3-3q5 0 6 4a2 2-88 0 0 1 2l12 2 3 2 4 3h5l10 2 6 2 7 3q-2 2-6 2h-1a1 1 0 0 0 0 1q8 3 15 9v1l-1 1c-5-6-12-9-20-11l-12-4-11-3a1 1-70 0 0 0 1l6 2 19 6q8 2 14 7 6 4 9 10 4 6 6 13H125c1-6 2-12 0-16q-7-16 3-30v-3a2 2 0 0 1 0-1l2-2 1-1v-3a1 1 0 0 1 1-1l1 4h1a2 2-29 0 1 1 1l6 2 1-1v-4l-1-1-9-3a2 2 5 0 1-1-2v-11l1-8v-2l1-5c0-3 1-7-3-8q-9-3-17-9l-8-9-2-4v-17a2 2-34 0 1 1-2v-1l-1-1-9 2q-6-1-12 1h-6l-10 2c-6 4-11 9-14 15q-13 19-20 39-4 13-5 22l-1 10v21l1 2 1 14 1 10h-9l-1-11v-8l-1-4v-18l1-19q5-30 22-57 4-9 13-17l1 4 2-1 9-5c2-2 6-5 3-7l-1-1h-2v-1q4-3 9-1 2 2 6 1l4-2 1-1q2-2 4 0h1v-2h2l1-1 3-1 1 2h1c0-4-4-8-7-10v-1c4 1 7 5 9 9l2 1 8 1 4-2h1l1 1v6l-1 1c-2 3 1 6 4 8l5 3 4 2 10-1 4-2v-1l3-2c4-1 8-7 8-11l1-5v-6q0-6-2-11a1 1-20 0 1 1-1l4 9q1 6-1 13a1 1-76 0 0 1 1l1-1c1-2 2-3 1-5l1-7-2-6a2 1 32 0 1 0-1l2-4 5-1 2 5h1l21-5 1 1-1 1-3 1v1a1 1 57 0 0 1 0l3-1 5-3q0 3-6 5a1 1-27 0 0-1 1l5 2 13 3c2 1 4 0 6-1l8-5 1-1-3-1v-1q-1-2-3-1a2 2-1 0 1-2-2l-1-3q1-4-1-8l-5-11v-1l2 4 2 4c3 4 4 8 5 12a2 2-77 0 0 1 2q6 5 6-1zm12 7l-1 1v1l7-1 3-3v-1q1-2-1-2l-8 2a1 1 0 0 0-1 0v2l1 1zm-10 20q8-6 13-14 1-2-2-1l-6 6q-2 6-6 9h1zm-8 1a4 2 97 0 0 2-4 4 2 97 0 0-1-4 4 2 97 0 0-2 4 4 2 97 0 0 1 4zm-55 43v5a3 3 0 0 0 2 3h2a2 2 0 0 0 1 0h6q4 0 5-5l2-22 1-3c0-2 1-3-1-4l-9 4-24 7q-10 3-21-1l-1-1a1 1-22 0 0-1 1l12 12 1 1 7-1q8-1 16 2a2 2-80 0 1 2 2zm-2 57a1 1-6 0 0-2 0 1 1-6 1 0 2 0z" class="G"/><path d="m326 304 3 4c2 1 2 2 2 4l-1 11q0 3-3 8l-5 8-6 7-12 9c-5 4-12 7-18 10a1 1 0 0 0 0 1c1 5 2 10 5 14 2 3 2 7 2 10a1 1 0 0 0 1 1c3-1 6-1 8-3l4-2-1 1q-2 2-1 3l-10 2-4 2-6 1q-18 0-33-4-5-1-10 2l-8-14-9-22a1 1 0 0 1 0-2c12-3 18-11 23-22l5-2h5l4-1a1 1-69 0 1 1 0l4 1 7 4 6 1h10c6 0 12-2 17-4q7-3 12-8 3-3 3-5v-7l1-2 2-3 2-3Z" class="C"/><path d="M321 312v7q0 2-3 5-5 5-12 8c-5 2-11 4-17 4h-10l-6-1-7-4-4-1a1 1-69 0 0-1 0l-4 1h-5q-3-4 2-7a1 1 0 0 1 1 0h5l15 1h20l16-6 5-4h2l3-3Z" class="H"/><path d="M212 323h1l1 3a2 2-1 0 0 2 2q2-1 3 1v1l3 1-1 1-8 5c-2 1-4 2-6 1l-13-3-5-2a1 1-27 0 1 1-1q6-2 6-5 0-2 3-3c3 2 6 2 9 2q1 2 2 1l1-2 1-2Z" class="F"/><path d="M234 330v-2a1 1 0 0 1 1 0l8-2q2 0 1 2v1l-3 3-7 1v-1l1-1-1-1Z" class="C"/><path d="m340 335-1 5 2 6 1 1 1 8 1 4v14l1 15-1 12q-2-7-8-6l-1 1h-1v-6l1-11v-20l1-9-1-9-1-4v-7h3l1 1a1 1 0 0 0 1-1v-1q2-2 1 0v7Z" class="F"/><path d="M334 329v7l1 4 1 9-1 9v20l-1 11v7l-2 6-2 9-1 8-1 11-1 10-4 17a1 1 90 0 1-1 1v-1l2-13v-2l1-4 2-16 1-11 1-13 1-12 2-11 2-12v-1l-4 10-20 74-3 7-5 21-2 9q-2 3-2 8l2 9h-2l-1-7-1-5-2-4-6-16 3 4 3 4c2 2 2 5 1 8a1 1 17 0 0 1 1h1l9-33q2-3 2-8l1-3 10-37 3-8 2-9 4-15v-2q3-6 4-13v-1l1-5 1-6v-8l-1-4q-1-3 1-4Z" class="G"/><path d="M348 332q-4 0-7 2l1-3a2 2 0 0 1 3-1q1 2 3 2Z" class="C"/><path d="m348 332 5 3 6 3 6 2 6 2 17 7q8 6 16 9l9 4 12 6 11 6 6 3 7 6 6 7c4 3 5 8 8 12 3 2 5 6 7 9q0 2 2 3l8 21 3 12 4 18 1 5 1 6 3 14 2 10h-32l-1-8-1-9-4-29-2-8-1-7-6-21c0-2 0-4-2-6q-3-4-9-7a1 1 0 0 0-2 2c-1 6 3 11 4 16l1 7q2 5 1 11l1 4a1 1 0 0 1-1 1l-1-1h-1l-1 2-8 17c-1 3 1 6 2 9l1 5 1 14 2 8h-86q-4-12-10-23l-1-4-1-4c2-2 1-4 2-6v-3l3-14v-6l1-6 1-10v-5l1-1a2 2-32 0 0 0-1v-29l-1-15v-14l-1-4-1-8-1-1-2-6 1-5h1v-1q3-2 7-2Zm-123 19h-1q4-3 6-9l6-6q3-1 2 1-5 8-13 14ZM92 340c3 2 7 6 7 10h-1l-1-2-6-7 1-1Z" class="I"/><ellipse rx="4.4" ry="1.9" transform="rotate(97 -45 270)" class="B"/><path d="M81 355q-4 1-6-1l-2-3a1 1 0 0 1 1-2c3-1 5 1 6 4l1 2Z" class="E"/><path d="m235 386-3-1-2-1-21-13-4-4-3-2 1-1h10c3 0 6-2 8-5q1-1 2 1l12 26Z" class="C"/><path d="M125 500H29l-1-10 1-7v-18l-1-12 1-8 2-8 1-5 2-3 2-7 8-19q4-11 13-21l1-1v-5l2-3 3-1 12-3 2-1a1 1-66 0 1 1 0q6 0 9-2l7-1v-1l9-2 1 1v1a2 2-34 0 0-1 2v17l2 4 8 9q8 6 17 9c4 1 3 5 3 8l-1 5v2l-1 8v11a2 2 5 0 0 1 2l9 3 1 1v4l-1 1-6-2a2 2-29 0 0-1-1h-1l-1-4a1 1 0 0 0-1 1v3l-1 1-2 2a2 2 0 0 0 0 1v3q-10 14-3 30c2 4 1 10 0 16Z" class="E"/><path d="m322 457-1 1-4-4-1-2a4 3-80 0 0-2-3l-4-3 20-74 4-10v1l-2 12-2 11-1 12-1 13-1 11-2 16-1 4v2l-2 13ZM94 364v1l-7 1q-3 2-9 2a1 1-66 0 0-1 0l-2 1-12 3-3 1-2 3v5l-1 1q-9 10-13 21l-8 19-2 7-2 3-1 5-2 8-1 8 1 12v18l-1 7-1-14-1-2v-21l1-10q1-9 5-22 7-20 20-39c3-6 8-11 14-15l10-2h6q6-2 12-1Z" class="I"/><path d="m202 365 3 2 4 4 21 13 2 1 3 1 15 26 3 4 3 5 11 16q-16 1-31 5-12 4-23 11l-3-16-1-7q-4-17-5-30v-25l-2-8v-2Z" class="E"/><path d="M162 395a2 2-80 0 0-2-2q-8-3-16-2l-7 1-1-1-12-12a1 1-22 0 1 1-1l1 1q11 4 21 1l24-7 9-4c2 1 1 2 1 4l-1 3-2 22q-1 5-5 5h-6a2 2 0 0 1-1 0h-2a3 3 0 0 1-2-3v-5Z" class="I"/><path d="M328 371v1l-1 1h-1l-3 4-5 3 7-7 3-2Z" class="J"/><path d="m328 372-4 15-2 9-3 8-10 37-1 3q-2-1-2-3v-11l-2-7v-8l3-3a1 1 0 0 0-1-2h-2l-6 3-10 2-6 1h-6l-12-1-3-1h-1c-1-3 1-5 4-5h17l7-1 9-1c4-1 6-4 9-6l1-1 4-2 4-2c4-2 6-5 6-9a1 1 0 0 1 0-1l2-2a1 1 0 0 0-2-1l-8 2 5-5 5-3 3-4h1l1-1Z" class="C"/><path d="M201 401q-1 4-5 5l-2-4 1-1q5-5 5-12v-5l1-5v-1l1 1v8l-1 7v7Z" class="D"/><path d="M41 383q-17 27-22 57l-1 19v18l1 4v8l1 11H8v-27l1-11 1-11 1-5q5-24 14-44l6-10q5-6 10-9Z" class="I"/><path d="M264 415h-7a1 1 88 0 0-1 1l1 1-1 1-3-4-12-21q5-3 10-2 15 4 33 4l6-1 4-2 10-2 9-5 8-2a1 1 0 0 1 2 1l-2 2a1 1 0 0 0 0 1c0 4-2 7-6 9l-4 2-4 2-1 1c-3 2-5 5-9 6l-9 1-7 1h-17c-3 0-5 2-4 5h1l3 1Z" class="E"/><path d="M345 388v29a2 2-32 0 1 0 1l-1 1v5l-1 10-1 6v6l-3 14v3c-1 2 0 4-2 6l2-18 1-7 1-8v-4l1-3 1-6v-5l1-7v-11l1-12Z" class="C"/><path d="M344 400v5c-3 2-5 2-7 0q-2-1-2-3l-1-6v-1h1l1-1q6-1 8 6Zm-2 1h-6a2 1 8 0 0 2 1h1a2 1 8 0 0 3 0v-1Z" class="D"/><path d="m334 396 1 6q0 2 2 3c2 2 4 2 7 0v6l-1 7v5l-1 6-1 3v4l-1 8-1 7-2 18q-3 15-3 31h-19l5-31 1-7v-4l1-1v1a1 1 90 0 0 1-1l4-17 1-10 1-11 1-8 2-9 2-6Zm1 33 1-1h3l1-1v-8l-1-1q-2 0-3-2 0-1 0 0h-1c1 2-1 4-1 7v6h-1a1 1-23 0 0 0 1l-1 9 6 2v-1l1-10h-2a1 1-29 0 1-1 0l-1-1Z" class="F"/><path d="M342 401v1a2 1 8 0 1-3 0h-1a2 1 8 0 1-2-1h6Z" class="C"/><path d="M201 401q4 7 4 15v5l2 6 1 3v4q-2 1-1 4v1h-1l-1-6-2-6-2-7-2-5c-1-2-3-4-3-7v-2q4-1 5-5Z" class="F"/><path d="m194 402 2 4v2c0 3 2 5 3 7l2 5 2 7 2 6 1 6 1 7 1 3v1l1 3 1 1v1h-1q-3 4-8 7l-6-2-10-2h-5l-4-3-3-2-12-2a2 2-88 0 1-1-2q-1-4-6-4l-1-1 5-2h1l1-7 1-4v-4l1-11 1-5a2 2 82 0 1 1-2l28-7h2Z" class="E"/><path d="M462 500h-27l-2-8-1-14-1-5c-1-3-3-6-2-9l8-17 1-2h1l1 1a1 1 0 0 0 1-1l-1-4q1-6-1-11l-1-7c-1-5-5-10-4-16a1 1 0 0 1 2-2q6 3 9 7c2 2 2 4 2 6l6 21 1 7 2 8 4 29 1 9 1 8Z" class="H"/><path d="M308 444h-2q-16-5-25-6l-12-1-13-19 1-1 4 1h25l13-3v-1l-1-1 6-3h2a1 1 0 0 1 1 2l-3 3v8l2 7v11q0 2 2 3Z" class="I"/><path d="m298 413 1 1v1l-13 3h-25l-4-1-1-1a1 1 88 0 1 1-1h7l12 1h6l6-1 10-2Z" class="H"/><path d="m335 429 1 1a1 1-29 0 0 1 0h2l-1 10v1l-6-2 1-9a1 1-23 0 1 0-1h1v-6c0-3 2-5 1-7h1q0-1 0 0 1 2 3 2l1 1v8l-1 1h-3l-1 1Z" class="D"/><path d="m208 434 4 20v2l1 2a2 2-50 0 1 0 1l-1 2-1-1-2-5h1v-1l-1-1-1-3v-1l-1-3-1-7h1v-1q-1-3 1-4Z" class="C"/><path d="m267 437 6 8h-14l-7 1-11 2q-13 3-24 10l-3 3v1l-1 3-1-2h-1a1 1-12 0 1 0 1l-3 1-7-3q5-3 8-7l2 5 1 1 1-2a2 2-50 0 0 0-1l-1-2v-2l1-1q11-7 23-11 15-4 31-5Zm41 7q0 5-2 8-10-5-20-6l-6-1h-5l-6-8 12 1q9 1 25 6h2Z" class="D"/><path d="m153 444 1 1 3 3 1 1-1 1h-5v1h1l1 1h-6a1 1-4 0 1-1-1l1-4h1l4-3Z" class="H"/><path d="m273 445 7 12 3 4q1 3 4 5l1 2 6 16 2 4 1 5 1 7h-68q1-11-3-19 0-2-3-3a3 3 0 0 1-1-1c-2-4-2-8-7-9l-3-3 1-3v-1l3-3q11-7 24-10l11-2 7-1h14Z" class="E"/><path d="m306 452-9 33h-1a1 1 17 0 1-1-1c1-3 1-6-1-8l-3-4-3-4-1-2-12-21h5l6 1q10 1 20 6Z" class="I"/><path d="m310 446 4 3a4 3-80 0 1 2 3l1 2 4 4v4l-14-9 3-7Z" class="D"/><ellipse rx="1.4" ry=".9" transform="rotate(354 4539 -1345)" class="E"/><path d="m307 453 14 9-1 7-2-2-1-1c0-1 0-2-2-3q-3 0-4 2l-3 4-2 4q-4 4-6 10l2-9 5-21Z" class="I"/><path d="m208 465 3-1a1 1-12 0 0 0-1h1l1 2 3 3c5 1 5 5 7 9a3 3 0 0 0 1 1q3 1 3 3l1 10v9h-2q-2-7-6-13-3-6-9-10-6-5-14-7l-19-6-6-2a1 1-70 0 1 0-1l11 3 12 4c8 2 15 5 20 11l1-1v-1q-7-6-15-9a1 1 0 0 1 0-1h1q4 0 6-2Z" class="H"/><path d="m320 469-5 31h-15l-2-9q0-5 2-8 2-6 6-10l2-4 3-4q1-2 4-2c2 1 2 2 2 3l1 1 2 2Z" class="E"/><path d="m337 469 1 4 1 4q6 11 10 23h-15q0-16 3-31Z" class="D"/><path d="M227 481q4 8 3 19h-2v-9l-1-10Z" class="G"/></svg>