<svg xmlns="http://www.w3.org/2000/svg" xml:space="preserve" fill-rule="evenodd" stroke-linejoin="round" stroke-miterlimit="2" clip-rule="evenodd" viewBox="0 0 4415 868"><text x="19.451" y="870.042" fill="#202027" font-family="&quot;CourierNewPS-BoldMT&quot;,&quot;Courier New&quot;,monospace" font-size="1532.11" font-weight="700">&lt;</text><text x="2701.63" y="870.042" fill="#202027" font-family="&quot;CourierNewPS-BoldMT&quot;,&quot;Courier New&quot;,monospace" font-size="1532.11" font-weight="700" transform="matrix(-1 0 0 1 4751.33 0)">&lt;</text><g fill="#ed505d"><path d="M1100.47 195.991c0-34.701-28.172-62.874-62.873-62.874-34.701 0-62.874 28.173-62.874 62.874v475.068c0 34.7 28.173 62.873 62.874 62.873 34.701 0 62.873-28.173 62.873-62.873V195.991ZM1285.64 312.952c0-27.865-22.623-50.488-50.488-50.488s-50.488 22.623-50.488 50.488v241.145c0 27.865 22.623 50.488 50.488 50.488s50.488-22.623 50.488-50.488V312.952ZM743.605 400.73c0-23.749-19.281-43.03-43.029-43.03-23.749 0-43.03 19.281-43.03 43.03v65.589c0 23.749 19.281 43.03 43.03 43.03 23.748 0 43.029-19.281 43.029-43.03V400.73ZM1411.53 400.73c0-23.749-19.281-43.03-43.03-43.03-23.749 0-43.03 19.281-43.03 43.03v65.589c0 23.749 19.281 43.03 43.03 43.03 23.749 0 43.03-19.281 43.03-43.03V400.73ZM889.661 315.083c0-29.041-23.577-52.619-52.618-52.619s-52.619 23.578-52.619 52.619v236.883c0 29.041 23.578 52.619 52.619 52.619s52.618-23.578 52.618-52.619V315.083Z"/></g><g fill="#202027" fill-rule="nonzero"><path d="M2292.18 57.39h67.274c2.951 0 5.066.59 6.344 1.77 1.279 1.18 1.918 2.705 1.918 4.573 0 1.771-.639 3.246-1.918 4.426-1.278 1.181-3.393 1.771-6.344 1.771h-67.274v82.47c0 7.179 2.877 13.179 8.631 17.998 5.753 4.82 14.187 7.229 25.301 7.229 8.36 0 17.409-1.254 27.146-3.762 9.737-2.508 17.31-5.335 22.72-8.483 1.967-1.278 3.59-1.918 4.868-1.918 1.574 0 2.951.615 4.131 1.845 1.18 1.229 1.771 2.68 1.771 4.352 0 1.475-.64 2.852-1.918 4.131-3.148 3.245-10.795 6.761-22.941 10.548-12.147 3.787-23.778 5.68-34.892 5.68-14.458 0-25.965-3.393-34.522-10.18-8.557-6.786-12.835-15.933-12.835-27.44V69.93h-22.867c-2.951 0-5.066-.59-6.344-1.771-1.279-1.18-1.918-2.704-1.918-4.573 0-1.77.639-3.246 1.918-4.426 1.278-1.18 3.393-1.77 6.344-1.77h22.867V20.802c0-2.951.59-5.065 1.77-6.344 1.181-1.279 2.656-1.918 4.426-1.918 1.869 0 3.394.639 4.574 1.918 1.18 1.279 1.77 3.393 1.77 6.344V57.39ZM2458.15 0v76.274c7.868-8.557 15.417-14.581 22.646-18.073 7.229-3.492 15.318-5.237 24.268-5.237 9.639 0 17.827 1.696 24.564 5.089 6.738 3.394 12.368 8.606 16.893 15.639 4.524 7.032 6.786 14.433 6.786 22.203v76.864h13.868c3.049 0 5.188.565 6.418 1.696 1.229 1.132 1.844 2.631 1.844 4.5 0 1.771-.615 3.246-1.844 4.426-1.23 1.18-3.369 1.77-6.418 1.77h-40.276c-3.049 0-5.213-.59-6.491-1.77-1.279-1.18-1.918-2.655-1.918-4.426 0-1.869.639-3.368 1.918-4.5 1.278-1.131 3.442-1.696 6.491-1.696h13.868V96.78c0-8.95-3.221-16.425-9.663-22.424-6.443-6-15.417-9-26.925-9-9.048 0-16.769 2.213-23.162 6.639-4.623 3.147-12.245 10.573-22.867 22.277v78.487h14.015c2.951 0 5.065.565 6.344 1.696 1.278 1.132 1.918 2.631 1.918 4.5 0 1.771-.64 3.246-1.918 4.426-1.279 1.18-3.393 1.77-6.344 1.77h-40.423c-2.951 0-5.066-.59-6.344-1.77-1.279-1.18-1.918-2.655-1.918-4.426 0-1.869.639-3.368 1.918-4.5 1.278-1.131 3.393-1.696 6.344-1.696h14.015V12.54h-16.671c-2.951 0-5.065-.59-6.344-1.77-1.278-1.18-1.918-2.705-1.918-4.574 0-1.77.64-3.245 1.918-4.426 1.279-1.18 3.393-1.77 6.344-1.77h29.064ZM2747.31 124.221h-126.286c2.164 16.032 8.876 28.941 20.138 38.727 11.261 9.786 25.203 14.679 41.825 14.679 9.245 0 18.933-1.524 29.063-4.573 10.131-3.049 18.393-7.082 24.786-12.098 1.868-1.475 3.491-2.213 4.868-2.213 1.574 0 2.951.615 4.131 1.845 1.18 1.229 1.77 2.68 1.77 4.352 0 1.672-.786 3.295-2.36 4.868-4.721 4.918-13.106 9.516-25.154 13.794-12.048 4.279-24.416 6.418-37.104 6.418-21.245 0-38.973-6.959-53.185-20.876-14.212-13.917-21.318-30.76-21.318-50.529 0-17.999 6.663-33.44 19.99-46.325 13.327-12.884 29.826-19.326 49.497-19.326 20.261 0 36.932 6.614 50.013 19.843 13.081 13.228 19.523 30.366 19.326 51.414Zm-12.54-12.54c-2.459-13.671-8.925-24.785-19.4-33.342-10.475-8.557-22.941-12.835-37.399-12.835-14.458 0-26.9 4.229-37.326 12.687-10.425 8.459-16.916 19.622-19.474 33.49h113.599Z"/></g><g fill="#202027" fill-rule="nonzero"><path d="M3829.25 733.927c0-2.851.59-4.916 1.77-6.195 1.18-1.278 2.655-1.917 4.425-1.917 1.869 0 3.393.639 4.573 1.917 1.18 1.279 1.77 3.442 1.77 6.49v21.241c0 2.95-.59 5.064-1.77 6.342-1.18 1.278-2.704 1.918-4.573 1.918-1.671 0-3.073-.541-4.203-1.623-1.131-1.082-1.795-2.852-1.992-5.31-.59-5.9-3.638-10.768-9.145-14.603-8.063-5.506-18.732-8.26-32.008-8.26-13.865 0-24.632 2.803-32.302 8.408-5.802 4.228-8.703 8.948-8.703 14.16 0 5.9 3.442 10.817 10.325 14.75 4.72 2.754 13.669 4.868 26.845 6.343 17.209 1.868 29.156 3.982 35.843 6.342 9.539 3.442 16.643 8.211 21.314 14.308 4.671 6.097 7.007 12.685 7.007 19.765 0 10.522-5.065 19.888-15.193 28.099-10.129 8.211-24.977 12.317-44.546 12.317-19.568 0-35.597-4.966-48.085-14.898 0 3.343-.197 5.507-.59 6.49-.393.983-1.106 1.819-2.139 2.508-1.032.688-2.188 1.032-3.466 1.032-1.77 0-3.245-.639-4.425-1.917-1.18-1.279-1.77-3.393-1.77-6.343v-25.518c0-2.95.565-5.064 1.696-6.342 1.131-1.279 2.63-1.918 4.499-1.918 1.77 0 3.269.615 4.499 1.844 1.229 1.229 1.843 2.876 1.843 4.941 0 4.524 1.131 8.309 3.393 11.358 3.442 4.72 8.924 8.629 16.446 11.726 7.523 3.098 16.742 4.647 27.657 4.647 16.127 0 28.124-3 35.99-8.998 7.867-5.998 11.8-12.341 11.8-19.028 0-7.67-3.982-13.816-11.947-18.438-8.064-4.621-19.79-7.719-35.179-9.292-15.39-1.573-26.428-3.638-33.114-6.195-6.687-2.557-11.899-6.392-15.636-11.505-3.736-5.114-5.605-10.62-5.605-16.52 0-10.621 5.212-19.053 15.635-25.297 10.424-6.244 22.863-9.366 37.318-9.366 17.111 0 31.025 4.179 41.743 12.537ZM3928.81 668.437v76.258c7.867-8.555 15.414-14.578 22.641-18.069 7.228-3.491 15.316-5.236 24.264-5.236 9.637 0 17.824 1.696 24.559 5.088 6.736 3.393 12.366 8.605 16.889 15.636 4.524 7.031 6.785 14.43 6.785 22.199v76.848h13.866c3.048 0 5.187.565 6.416 1.696s1.844 2.631 1.844 4.499c0 1.77-.615 3.245-1.844 4.425-1.229 1.18-3.368 1.77-6.416 1.77h-40.268c-3.049 0-5.212-.59-6.49-1.77-1.279-1.18-1.918-2.655-1.918-4.425 0-1.868.639-3.368 1.918-4.499 1.278-1.131 3.441-1.696 6.49-1.696h13.865v-75.963c0-8.949-3.221-16.422-9.662-22.421-6.44-5.998-15.413-8.997-26.919-8.997-9.046 0-16.766 2.212-23.157 6.637-4.622 3.147-12.243 10.571-22.863 22.273v78.471h14.013c2.95 0 5.064.565 6.342 1.696 1.279 1.131 1.918 2.631 1.918 4.499 0 1.77-.639 3.245-1.918 4.425-1.278 1.18-3.392 1.77-6.342 1.77h-40.416c-2.95 0-5.064-.59-6.342-1.77-1.279-1.18-1.918-2.655-1.918-4.425 0-1.868.639-3.368 1.918-4.499 1.278-1.131 3.392-1.696 6.342-1.696h14.013V680.974h-16.668c-2.95 0-5.064-.59-6.342-1.77-1.279-1.18-1.918-2.704-1.918-4.572 0-1.77.639-3.245 1.918-4.425 1.278-1.18 3.392-1.77 6.342-1.77h29.058ZM4220.13 789.978c0 18.88-6.761 35.007-20.282 48.38-13.521 13.374-29.82 20.061-48.897 20.061-19.273 0-35.646-6.712-49.118-20.134-13.471-13.423-20.207-29.525-20.207-48.307 0-18.88 6.736-35.032 20.207-48.454 13.472-13.423 29.845-20.134 49.118-20.134 19.077 0 35.376 6.686 48.897 20.06 13.521 13.373 20.282 29.549 20.282 48.528Zm-12.538 0c0-15.537-5.531-28.763-16.594-39.678-11.063-10.915-24.461-16.373-40.194-16.373-15.734 0-29.132 5.482-40.194 16.447-11.063 10.964-16.594 24.165-16.594 39.604 0 15.34 5.531 28.517 16.594 39.53 11.062 11.014 24.46 16.521 40.194 16.521 15.733 0 29.131-5.483 40.194-16.447 11.063-10.964 16.594-24.166 16.594-39.604ZM4374.86 853.551l-15.34.148-27.288-79.651-27.14 79.651-15.341-.148-25.665-115.199h-6.047c-2.95 0-5.065-.59-6.343-1.77-1.278-1.18-1.918-2.704-1.918-4.572 0-1.77.64-3.245 1.918-4.425 1.278-1.18 3.393-1.77 6.343-1.77h34.072c2.95 0 5.065.59 6.343 1.77 1.278 1.18 1.918 2.704 1.918 4.572 0 1.77-.64 3.245-1.918 4.425-1.278 1.18-3.393 1.77-6.343 1.77h-15.782l21.978 98.236 26.402-78.47h14.75l27.141 78.47 21.092-98.236h-15.635c-2.95 0-5.088-.59-6.416-1.77-1.328-1.18-1.991-2.704-1.991-4.572 0-1.77.639-3.245 1.917-4.425 1.279-1.18 3.442-1.77 6.49-1.77h33.926c3.048 0 5.211.59 6.49 1.77 1.278 1.18 1.917 2.704 1.917 4.572 0 1.77-.639 3.245-1.917 4.425-1.279 1.18-3.442 1.77-6.49 1.77h-5.9l-25.223 115.199Z"/></g><g font-family="&quot;CourierNewPSMT&quot;,&quot;Courier New&quot;,monospace" font-size="436.43"><text x="2225.5" y="525.477" fill="#ed505d">no</text><text x="2874.1" y="521.961" fill="#202027">script</text></g></svg>