<?xml version="1.0" encoding="UTF-8" standalone="no"?><!DOCTYPE svg PUBLIC "-//W3C//DTD SVG 1.1//EN" "http://www.w3.org/Graphics/SVG/1.1/DTD/svg11.dtd"><svg width="100%" height="100%" viewBox="0 0 802 591" version="1.1" xmlns="http://www.w3.org/2000/svg" xmlns:xlink="http://www.w3.org/1999/xlink" xml:space="preserve" xmlns:serif="http://www.serif.com/" style="fill-rule:evenodd;clip-rule:evenodd;stroke-linejoin:round;stroke-miterlimit:2;"><g transform="matrix(1,0,0,0.997523,0,-0.6393)"><text x="7.535px" y="460.387px" style="font-family:'CourierNewPS-BoldMT', 'Courier New', monospace;font-weight:700;font-size:593.528px;fill:#202027;">&lt;</text></g><g transform="matrix(-1,0,0,0.997523,1840.63,-0.6393)"><text x="1046.59px" y="460.387px" style="font-family:'CourierNewPS-BoldMT', 'Courier New', monospace;font-weight:700;font-size:593.528px;fill:#202027;">&lt;</text></g><g><path d="M426.315,198.193c0,-13.443 -10.914,-24.357 -24.356,-24.357c-13.443,-0 -24.357,10.914 -24.357,24.357l-0,183.461c-0,13.443 10.914,24.357 24.357,24.357c13.442,-0 24.356,-10.914 24.356,-24.357l0,-183.461Z" style="fill:#ed505d;"/><path d="M498.046,243.379c0,-10.795 -8.764,-19.559 -19.558,-19.559c-10.795,-0 -19.559,8.764 -19.559,19.559l0,93.089c0,10.795 8.764,19.559 19.559,19.559c10.794,-0 19.558,-8.764 19.558,-19.559l0,-93.089Z" style="fill:#ed505d;"/><path d="M288.067,277.292c-0,-9.2 -7.469,-16.67 -16.669,-16.67c-9.2,0 -16.67,7.47 -16.67,16.67l0,25.263c0,9.2 7.47,16.669 16.67,16.669c9.2,0 16.669,-7.469 16.669,-16.669l-0,-25.263Z" style="fill:#ed505d;"/><path d="M546.816,277.292c0,-9.2 -7.469,-16.67 -16.669,-16.67c-9.2,0 -16.669,7.47 -16.669,16.67l-0,25.263c-0,9.2 7.469,16.669 16.669,16.669c9.2,0 16.669,-7.469 16.669,-16.669l0,-25.263Z" style="fill:#ed505d;"/><path d="M344.648,244.204c-0,-11.25 -9.134,-20.384 -20.384,-20.384c-11.25,-0 -20.384,9.134 -20.384,20.384l-0,91.439c-0,11.25 9.134,20.384 20.384,20.384c11.25,-0 20.384,-9.134 20.384,-20.384l-0,-91.439Z" style="fill:#ed505d;"/></g><text x="273.594px" y="588.899px" style="font-family:'CourierNewPS-BoldMT', 'Courier New', monospace;font-weight:700;font-size:104.743px;fill:#202027;">show</text><g><text x="136.051px" y="67.178px" style="font-family:'CourierNewPS-BoldMT', 'Courier New', monospace;font-weight:700;font-size:104.743px;fill:#ed505d;">no</text><text x="291.715px" y="66.334px" style="font-family:'CourierNewPS-BoldMT', 'Courier New', monospace;font-weight:700;font-size:104.743px;fill:#202027;">script</text></g></svg>